<svg xmlns="http://www.w3.org/2000/svg" xmlns:xlink="http://www.w3.org/1999/xlink" contentStyleType="text/css" data-diagram-type="DESCRIPTION" height="407px" preserveAspectRatio="none" style="width:699px;height:407px;background:#FFFFFF;" version="1.1" viewBox="0 0 699 407" width="699px" zoomAndPan="magnify"><title>Minecraft Launcher - Basis Use Cases</title><defs/><g><g class="title" data-source-line="1"><text fill="#000000" font-family="sans-serif" font-size="14" font-weight="bold" lengthAdjust="spacing" textLength="253.6543" x="215.6729" y="24.5332">Minecraft Launcher - Basis Use Cases</text></g><!--cluster Minecraft Launcher--><g class="cluster" data-entity="Minecraft Launcher" data-source-line="6" data-uid="ent0004" id="cluster_Minecraft Launcher"><rect fill="none" height="91" rx="2.5" ry="2.5" style="stroke:#181818;stroke-width:1;" width="676" x="17" y="169.1094"/><text fill="#000000" font-family="sans-serif" font-size="14" font-weight="bold" lengthAdjust="spacing" textLength="129.1377" x="290.4312" y="185.6426">Minecraft Launcher</text></g><!--entity UC1--><g class="entity" data-entity="UC1" data-source-line="7" data-uid="ent0005" id="entity_UC1"><ellipse cx="81.0767" cy="224.5611" fill="#F1F1F1" rx="47.5767" ry="15.4517" style="stroke:#181818;stroke-width:0.5;"/><text fill="#000000" font-family="sans-serif" font-size="14" lengthAdjust="spacing" textLength="63.041" x="49.5562" y="229.8658">Anmelden</text></g><!--entity UC2--><g class="entity" data-entity="UC2" data-source-line="8" data-uid="ent0006" id="entity_UC2"><ellipse cx="240.2329" cy="224.856" fill="#F1F1F1" rx="76.7329" ry="17.7466" style="stroke:#181818;stroke-width:0.5;"/><text fill="#000000" font-family="sans-serif" font-size="14" lengthAdjust="spacing" textLength="118.2959" x="181.085" y="230.1606">Version ausw&#228;hlen</text></g><!--entity UC3--><g class="entity" data-entity="UC3" data-source-line="9" data-uid="ent0007" id="entity_UC3"><ellipse cx="410.0273" cy="224.5611" fill="#F1F1F1" rx="58.0273" ry="15.4517" style="stroke:#181818;stroke-width:0.5;"/><text fill="#000000" font-family="sans-serif" font-size="14" lengthAdjust="spacing" textLength="77.8203" x="371.1171" y="229.8658">Spiel starten</text></g><!--entity UC4--><g class="entity" data-entity="UC4" data-source-line="10" data-uid="ent0008" id="entity_UC4"><ellipse cx="590.2251" cy="224.8544" fill="#F1F1F1" rx="86.7251" ry="19.745" style="stroke:#181818;stroke-width:0.5;"/><text fill="#000000" font-family="sans-serif" font-size="14" lengthAdjust="spacing" textLength="142.4336" x="519.0083" y="230.1591">Updates herunterladen</text></g><!--entity Spieler--><g class="entity" data-entity="Spieler" data-source-line="3" data-uid="ent0002" id="entity_Spieler"><ellipse cx="291.7896" cy="52.6094" fill="#F1F1F1" rx="8" ry="8" style="stroke:#181818;stroke-width:0.5;"/><path d="M291.7896,60.6094 L291.7896,87.6094 M278.7896,68.6094 L304.7896,68.6094 M291.7896,87.6094 L278.7896,102.6094 M291.7896,87.6094 L304.7896,102.6094" fill="none" style="stroke:#181818;stroke-width:0.5;"/><text fill="#000000" font-family="sans-serif" font-size="14" lengthAdjust="spacing" textLength="43.5791" x="270" y="118.6426">Spieler</text></g><!--entity Xbox--><g class="entity" data-entity="Xbox" data-source-line="4" data-uid="ent0003" id="entity_Xbox"><ellipse cx="81.0791" cy="332.6094" fill="#F1F1F1" rx="8" ry="8" style="stroke:#181818;stroke-width:0.5;"/><path d="M81.0791,340.6094 L81.0791,367.6094 M68.0791,348.6094 L94.0791,348.6094 M81.0791,367.6094 L68.0791,382.6094 M81.0791,367.6094 L94.0791,382.6094" fill="none" style="stroke:#181818;stroke-width:0.5;"/><text fill="#000000" font-family="sans-serif" font-size="14" lengthAdjust="spacing" textLength="150.1582" x="6" y="398.6426">Microsoft/Xbox Services</text></g><!--link Spieler to UC1--><g class="link" data-entity-1="Spieler" data-entity-2="UC1" data-source-line="13" data-uid="lnk9" id="link_Spieler_UC1"><path d="M269.86,93.4294 C240.26,106.3994 186.77,131.6594 146,161.1094 C125.95,175.5894 109.9523,191.5938 97.5323,205.0938" fill="none" id="Spieler-to-UC1" style="stroke:#181818;stroke-width:1;"/><polygon fill="#181818" points="93.47,209.5094,102.5072,205.5942,96.8553,205.8297,96.6198,200.1778,93.47,209.5094" style="stroke:#181818;stroke-width:1;"/></g><!--link Spieler to UC2--><g class="link" data-entity-1="Spieler" data-entity-2="UC2" data-source-line="14" data-uid="lnk10" id="link_Spieler_UC2"><path d="M277.79,122.2294 C267.45,149.9794 256.0343,180.5867 248.2943,201.3667" fill="none" id="Spieler-to-UC2" style="stroke:#181818;stroke-width:1;"/><polygon fill="#181818" points="246.2,206.9894,253.0898,199.9516,247.9452,202.3038,245.593,197.1592,246.2,206.9894" style="stroke:#181818;stroke-width:1;"/></g><!--link Spieler to UC3--><g class="link" data-entity-1="Spieler" data-entity-2="UC3" data-source-line="15" data-uid="lnk11" id="link_Spieler_UC3"><path d="M314.19,110.3494 C339.03,139.7094 374.4741,181.6193 394.1241,204.8393" fill="none" id="Spieler-to-UC3" style="stroke:#181818;stroke-width:1;"/><polygon fill="#181818" points="398,209.4194,395.2395,199.9653,394.7701,205.6026,389.1327,205.1332,398,209.4194" style="stroke:#181818;stroke-width:1;"/></g><!--link Spieler to UC4--><g class="link" data-entity-1="Spieler" data-entity-2="UC4" data-source-line="16" data-uid="lnk12" id="link_Spieler_UC4"><path d="M314.03,91.5294 C350.55,104.1194 425.59,131.2194 486,161.1094 C513.19,174.5594 537.653,189.4147 558.263,202.6647" fill="none" id="Spieler-to-UC4" style="stroke:#181818;stroke-width:1;"/><polygon fill="#181818" points="563.31,205.9094,557.9026,197.6777,559.1042,203.2055,553.5764,204.407,563.31,205.9094" style="stroke:#181818;stroke-width:1;"/></g><!--link UC1 to Xbox--><g class="link" data-entity-1="UC1" data-entity-2="Xbox" data-source-line="18" data-uid="lnk13" id="link_UC1_Xbox"><path d="M81,240.2194 C81,260.0294 81,290.1194 81,317.9094" fill="none" id="UC1-to-Xbox" style="stroke:#181818;stroke-width:1;"/><polygon fill="#181818" points="81,323.9094,85,314.9094,81,318.9094,77,314.9094,81,323.9094" style="stroke:#181818;stroke-width:1;"/><text fill="#000000" font-family="sans-serif" font-size="13" lengthAdjust="spacing" textLength="96.8398" x="82" y="290.6045">Authentifizierung</text></g><!--SRC=[PP31JW9138RlVOfcxXiZSF9WWbpbHDPuhKENRJBEaBQhHiFRy2Q-cCk4u8h7h_sRhwsB9yQrP8vAdUCZ3JdshDZW0vaOjiQu8cC3eEX5SRCNJgnd2ck9MgnqVlFyKZvmm_ecaIqW6Pug0ChHAUz6JVZl2VW5Y8Dn71qOblcLqvPp7MzNjzFU4wj9oKY3lNyV-tH9pQQfkXwQa_ebC9y6slsMd0r7-P2TDT6lRm47WFE1s3JtTOM_FBlY-HKl0CQX2lKXTxWSlEViqicdd9ox7m00]--></g></svg>