<svg xmlns="http://www.w3.org/2000/svg" xmlns:xlink="http://www.w3.org/1999/xlink" contentStyleType="text/css" data-diagram-type="DESCRIPTION" height="411px" preserveAspectRatio="none" style="width:946px;height:411px;background:#FFFFFF;" version="1.1" viewBox="0 0 946 411" width="946px" zoomAndPan="magnify"><title>Minecraft Client - Basis Use Cases</title><defs/><g><g class="title" data-source-line="1"><text fill="#000000" font-family="sans-serif" font-size="14" font-weight="bold" lengthAdjust="spacing" textLength="229.5303" x="351.2349" y="24.5332">Minecraft Client - Basis Use Cases</text></g><!--cluster Minecraft Client--><g class="cluster" data-entity="Minecraft Client" data-source-line="8" data-uid="ent0006" id="cluster_Minecraft Client"><rect fill="none" height="95" rx="2.5" ry="2.5" style="stroke:#181818;stroke-width:1;" width="923" x="17" y="169.1094"/><text fill="#000000" font-family="sans-serif" font-size="14" font-weight="bold" lengthAdjust="spacing" textLength="105.0137" x="425.9932" y="185.6426">Minecraft Client</text></g><!--entity UC1--><g class="entity" data-entity="UC1" data-source-line="9" data-uid="ent0007" id="entity_UC1"><ellipse cx="81.0767" cy="226.5611" fill="#F1F1F1" rx="47.5767" ry="15.4517" style="stroke:#181818;stroke-width:0.5;"/><text fill="#000000" font-family="sans-serif" font-size="14" lengthAdjust="spacing" textLength="63.041" x="49.5562" y="231.8658">Anmelden</text></g><!--entity UC2--><g class="entity" data-entity="UC2" data-source-line="10" data-uid="ent0008" id="entity_UC2"><ellipse cx="247.9119" cy="226.3918" fill="#F1F1F1" rx="84.4119" ry="19.2824" style="stroke:#181818;stroke-width:0.5;"/><text fill="#000000" font-family="sans-serif" font-size="14" lengthAdjust="spacing" textLength="136.9648" x="179.4295" y="231.6965">Spielen (Singleplayer)</text></g><!--entity UC3--><g class="entity" data-entity="UC3" data-source-line="11" data-uid="ent0009" id="entity_UC3"><ellipse cx="463.1264" cy="226.5347" fill="#F1F1F1" rx="95.1264" ry="21.4253" style="stroke:#181818;stroke-width:0.5;"/><text fill="#000000" font-family="sans-serif" font-size="14" lengthAdjust="spacing" textLength="161.8545" x="382.1992" y="231.8394">Multiplayer-Spiel beitreten</text></g><!--entity UC4--><g class="entity" data-entity="UC4" data-source-line="12" data-uid="ent0010" id="entity_UC4"><ellipse cx="672.8995" cy="226.4893" fill="#F1F1F1" rx="79.8995" ry="18.3799" style="stroke:#181818;stroke-width:0.5;"/><text fill="#000000" font-family="sans-serif" font-size="14" lengthAdjust="spacing" textLength="126.1025" x="609.8482" y="231.794">Inhalte laden/kaufen</text></g><!--entity UC5--><g class="entity" data-entity="UC5" data-source-line="13" data-uid="ent0011" id="entity_UC5"><ellipse cx="856.0218" cy="226.6137" fill="#F1F1F1" rx="68.0218" ry="16.0044" style="stroke:#181818;stroke-width:0.5;"/><text fill="#000000" font-family="sans-serif" font-size="14" lengthAdjust="spacing" textLength="95.7031" x="808.1702" y="231.9184">Profil verwalten</text></g><!--entity Spieler--><g class="entity" data-entity="Spieler" data-source-line="3" data-uid="ent0002" id="entity_Spieler"><ellipse cx="462.7896" cy="52.6094" fill="#F1F1F1" rx="8" ry="8" style="stroke:#181818;stroke-width:0.5;"/><path d="M462.7896,60.6094 L462.7896,87.6094 M449.7896,68.6094 L475.7896,68.6094 M462.7896,87.6094 L449.7896,102.6094 M462.7896,87.6094 L475.7896,102.6094" fill="none" style="stroke:#181818;stroke-width:0.5;"/><text fill="#000000" font-family="sans-serif" font-size="14" lengthAdjust="spacing" textLength="43.5791" x="441" y="118.6426">Spieler</text></g><!--entity Xbox--><g class="entity" data-entity="Xbox" data-source-line="4" data-uid="ent0003" id="entity_Xbox"><ellipse cx="81.0791" cy="336.6094" fill="#F1F1F1" rx="8" ry="8" style="stroke:#181818;stroke-width:0.5;"/><path d="M81.0791,344.6094 L81.0791,371.6094 M68.0791,352.6094 L94.0791,352.6094 M81.0791,371.6094 L68.0791,386.6094 M81.0791,371.6094 L94.0791,386.6094" fill="none" style="stroke:#181818;stroke-width:0.5;"/><text fill="#000000" font-family="sans-serif" font-size="14" lengthAdjust="spacing" textLength="150.1582" x="6" y="402.6426">Microsoft/Xbox Services</text></g><!--entity Server--><g class="entity" data-entity="Server" data-source-line="5" data-uid="ent0004" id="entity_Server"><ellipse cx="462.9102" cy="336.6094" fill="#F1F1F1" rx="8" ry="8" style="stroke:#181818;stroke-width:0.5;"/><path d="M462.9102,344.6094 L462.9102,371.6094 M449.9102,352.6094 L475.9102,352.6094 M462.9102,371.6094 L449.9102,386.6094 M462.9102,371.6094 L475.9102,386.6094" fill="none" style="stroke:#181818;stroke-width:0.5;"/><text fill="#000000" font-family="sans-serif" font-size="14" lengthAdjust="spacing" textLength="161.8203" x="382" y="402.6426">Minecraft Server / Realms</text></g><!--entity Marketplace--><g class="entity" data-entity="Marketplace" data-source-line="6" data-uid="ent0005" id="entity_Marketplace"><ellipse cx="672.8584" cy="336.6094" fill="#F1F1F1" rx="8" ry="8" style="stroke:#181818;stroke-width:0.5;"/><path d="M672.8584,344.6094 L672.8584,371.6094 M659.8584,352.6094 L685.8584,352.6094 M672.8584,371.6094 L659.8584,386.6094 M672.8584,371.6094 L685.8584,386.6094" fill="none" style="stroke:#181818;stroke-width:0.5;"/><text fill="#000000" font-family="sans-serif" font-size="14" lengthAdjust="spacing" textLength="137.7168" x="604" y="402.6426">Minecraft Marketplace</text></g><!--link Spieler to UC1--><g class="link" data-entity-1="Spieler" data-entity-2="UC1" data-source-line="16" data-uid="lnk12" id="link_Spieler_UC1"><path d="M440.77,85.4294 C386.88,89.4594 246.34,104.9894 146,161.1094 C123.38,173.7594 106.932,191.7354 95.262,206.5554" fill="none" id="Spieler-to-UC1" style="stroke:#181818;stroke-width:1;"/><polygon fill="#181818" points="91.55,211.2694,100.2606,206.6731,94.6433,207.3411,93.9754,201.7238,91.55,211.2694" style="stroke:#181818;stroke-width:1;"/></g><!--link Spieler to UC2--><g class="link" data-entity-1="Spieler" data-entity-2="UC2" data-source-line="17" data-uid="lnk13" id="link_Spieler_UC2"><path d="M440.8,98.7194 C401,124.9194 322.6618,176.4706 279.7718,204.7006" fill="none" id="Spieler-to-UC2" style="stroke:#181818;stroke-width:1;"/><polygon fill="#181818" points="274.76,207.9994,284.4769,206.3925,278.9365,205.2504,280.0785,199.71,274.76,207.9994" style="stroke:#181818;stroke-width:1;"/></g><!--link Spieler to UC3--><g class="link" data-entity-1="Spieler" data-entity-2="UC3" data-source-line="18" data-uid="lnk14" id="link_Spieler_UC3"><path d="M463,122.3994 C463,148.9194 463,177.2094 463,198.8094" fill="none" id="Spieler-to-UC3" style="stroke:#181818;stroke-width:1;"/><polygon fill="#181818" points="463,204.8094,467,195.8094,463,199.8094,459,195.8094,463,204.8094" style="stroke:#181818;stroke-width:1;"/></g><!--link Spieler to UC4--><g class="link" data-entity-1="Spieler" data-entity-2="UC4" data-source-line="19" data-uid="lnk15" id="link_Spieler_UC4"><path d="M485.08,98.9894 C524.57,125.5894 602.0443,177.7965 643.3443,205.6265" fill="none" id="Spieler-to-UC4" style="stroke:#181818;stroke-width:1;"/><polygon fill="#181818" points="648.32,208.9794,643.0917,200.6329,644.1735,206.1853,638.6211,207.2672,648.32,208.9794" style="stroke:#181818;stroke-width:1;"/></g><!--link Spieler to UC5--><g class="link" data-entity-1="Spieler" data-entity-2="UC5" data-source-line="20" data-uid="lnk16" id="link_Spieler_UC5"><path d="M485.32,86.5694 C537.54,92.9594 670.85,113.0994 771,161.1094 C797.89,173.9994 820.1477,192.1453 836.2477,206.8353" fill="none" id="Spieler-to-UC5" style="stroke:#181818;stroke-width:1;"/><polygon fill="#181818" points="840.68,210.8794,836.7277,201.8583,836.9864,207.5093,831.3355,207.7681,840.68,210.8794" style="stroke:#181818;stroke-width:1;"/></g><!--link UC1 to Xbox--><g class="link" data-entity-1="UC1" data-entity-2="Xbox" data-source-line="22" data-uid="lnk17" id="link_UC1_Xbox"><path d="M81,242.1694 C81,262.3794 81,293.6494 81,322.0694" fill="none" id="UC1-to-Xbox" style="stroke:#181818;stroke-width:1;"/><polygon fill="#181818" points="81,328.0694,85,319.0694,81,323.0694,77,319.0694,81,328.0694" style="stroke:#181818;stroke-width:1;"/><text fill="#000000" font-family="sans-serif" font-size="13" lengthAdjust="spacing" textLength="96.8398" x="82" y="294.6045">Authentifizierung</text></g><!--link UC3 to Server--><g class="link" data-entity-1="UC3" data-entity-2="Server" data-source-line="23" data-uid="lnk18" id="link_UC3_Server"><path d="M463,248.3394 C463,269.3194 463,296.2394 463,321.9394" fill="none" id="UC3-to-Server" style="stroke:#181818;stroke-width:1;"/><polygon fill="#181818" points="463,327.9394,467,318.9394,463,322.9394,459,318.9394,463,327.9394" style="stroke:#181818;stroke-width:1;"/><text fill="#000000" font-family="sans-serif" font-size="13" lengthAdjust="spacing" textLength="66.498" x="464" y="294.6045">Verbindung</text></g><!--link UC4 to Marketplace--><g class="link" data-entity-1="UC4" data-entity-2="Marketplace" data-source-line="24" data-uid="lnk19" id="link_UC4_Marketplace"><path d="M673,245.1494 C673,265.8994 673,295.0294 673,322.0994" fill="none" id="UC4-to-Marketplace" style="stroke:#181818;stroke-width:1;"/><polygon fill="#181818" points="673,328.0994,677,319.0994,673,323.0994,669,319.0994,673,328.0994" style="stroke:#181818;stroke-width:1;"/><text fill="#000000" font-family="sans-serif" font-size="13" lengthAdjust="spacing" textLength="79.498" x="674" y="294.6045">Daten / K&#228;ufe</text></g><!--SRC=[PP5DJiD038NtSmehArX45VtPT85KmWQXI8YeYAqxTLghqqaru_0hRiDDk1YJITg6i7psDs-URM4n13bRqWvBWSmmMO4KRj2pXwKdoD2JLmgrL0wA0vCXrwaaP-qgNvKoUbvLRr2GUs5DFW7qq5JEtF631Y478tWaDFkMR6l_sHpTZkHWK5FaUbefHrhGRaBwP1W_WKy5K7lI8Jea2xidioORFPRPLR_NpcFXek36AtY_axlio76Vp6iZtFRJ-0fMnE98JiQJFdvdjsY4m63uURJ3kZnnqpxtuAgI3OJvNnl-oCpKbrBTiY5DhsFklteyq9E1dWxqJAbW4aKyrXmMjMp3khZa3oPNsqq09X7ehZI79t8hjkksDusztXK2S8iXT3Zd_Szt6F4N]--></g></svg>