<svg xmlns="http://www.w3.org/2000/svg" xmlns:xlink="http://www.w3.org/1999/xlink" contentStyleType="text/css" data-diagram-type="DESCRIPTION" height="737px" preserveAspectRatio="none" style="width:476px;height:737px;background:#FFFFFF;" version="1.1" viewBox="0 0 476 737" width="476px" zoomAndPan="magnify"><title>Minecraft - Fachlicher Kontext</title><defs/><g><g class="title" data-source-line="1"><text fill="#000000" font-family="sans-serif" font-size="14" font-weight="bold" lengthAdjust="spacing" textLength="200.7031" x="130.7783" y="24.5332">Minecraft - Fachlicher Kontext</text></g><!--entity Spieler--><g class="entity" data-entity="Spieler" data-source-line="9" data-uid="ent0002" id="entity_Spieler"><ellipse cx="226.1377" cy="52.6094" fill="#F1F1F1" rx="8" ry="8" style="stroke:#181818;stroke-width:0.5;"/><path d="M226.1377,60.6094 L226.1377,87.6094 M213.1377,68.6094 L239.1377,68.6094 M226.1377,87.6094 L213.1377,102.6094 M226.1377,87.6094 L239.1377,102.6094" fill="none" style="stroke:#181818;stroke-width:0.5;"/><text fill="#000000" font-family="sans-serif" font-size="14" lengthAdjust="spacing" textLength="62.2754" x="195" y="118.6426">Spielende</text></g><!--entity Admin--><g class="entity" data-entity="Admin" data-source-line="10" data-uid="ent0003" id="entity_Admin"><ellipse cx="226.0376" cy="278.6094" fill="#F1F1F1" rx="8" ry="8" style="stroke:#181818;stroke-width:0.5;"/><path d="M226.0376,286.6094 L226.0376,313.6094 M213.0376,294.6094 L239.0376,294.6094 M226.0376,313.6094 L213.0376,328.6094 M226.0376,313.6094 L239.0376,328.6094" fill="none" style="stroke:#181818;stroke-width:0.5;"/><text fill="#000000" font-family="sans-serif" font-size="14" lengthAdjust="spacing" textLength="203.0752" x="124.5" y="344.6426">Server-Administrationen / Hoster</text></g><!--entity Dev--><g class="entity" data-entity="Dev" data-source-line="11" data-uid="ent0004" id="entity_Dev"><ellipse cx="225.9722" cy="165.6094" fill="#F1F1F1" rx="8" ry="8" style="stroke:#181818;stroke-width:0.5;"/><path d="M225.9722,173.6094 L225.9722,200.6094 M212.9722,181.6094 L238.9722,181.6094 M225.9722,200.6094 L212.9722,215.6094 M225.9722,200.6094 L238.9722,215.6094" fill="none" style="stroke:#181818;stroke-width:0.5;"/><text fill="#000000" font-family="sans-serif" font-size="14" lengthAdjust="spacing" textLength="157.9443" x="147" y="231.6426">Community-Entwickelnde</text></g><!--entity Ops--><g class="entity" data-entity="Ops" data-source-line="12" data-uid="ent0005" id="entity_Ops"><ellipse cx="226.0894" cy="391.6094" fill="#F1F1F1" rx="8" ry="8" style="stroke:#181818;stroke-width:0.5;"/><path d="M226.0894,399.6094 L226.0894,426.6094 M213.0894,407.6094 L239.0894,407.6094 M226.0894,426.6094 L213.0894,441.6094 M226.0894,426.6094 L239.0894,441.6094" fill="none" style="stroke:#181818;stroke-width:0.5;"/><text fill="#000000" font-family="sans-serif" font-size="14" lengthAdjust="spacing" textLength="178.1787" x="137" y="457.6426">Betrieb / Support (Hersteller)</text></g><!--entity System--><g class="entity" data-entity="System" data-source-line="15" data-uid="ent0006" id="entity_System"><rect fill="#F1F1F1" height="55.2188" rx="2.5" ry="2.5" style="stroke:#181818;stroke-width:0.5;" width="231.6338" x="110" y="496.6094"/><text fill="#000000" font-family="sans-serif" font-size="14" lengthAdjust="spacing" textLength="137.7031" x="120" y="521.1426">Minecraft-Spielsystem</text><text fill="#000000" font-family="sans-serif" font-size="14" lengthAdjust="spacing" textLength="211.6338" x="120" y="538.752">(Launcher, Client, Server/Realms)</text></g><!--entity Commerce--><g class="entity" data-entity="Commerce" data-source-line="18" data-uid="ent0007" id="entity_Commerce"><rect fill="#F1F1F1" height="55.2188" rx="2.5" ry="2.5" style="stroke:#181818;stroke-width:0.5;" width="197.4268" x="127.5" y="676.6094"/><text fill="#000000" font-family="sans-serif" font-size="14" lengthAdjust="spacing" textLength="177.4268" x="137.5" y="701.1426">Zahlungsdienstleister / Store</text><text fill="#000000" font-family="sans-serif" font-size="14" lengthAdjust="spacing" textLength="138.4551" x="137.5" y="718.752">(Microsoft Commerce)</text></g><!--entity Identity--><g class="entity" data-entity="Identity" data-source-line="19" data-uid="ent0008" id="entity_Identity"><rect fill="#F1F1F1" height="55.2188" rx="2.5" ry="2.5" style="stroke:#181818;stroke-width:0.5;" width="140.5859" x="155.5" y="586.6094"/><text fill="#000000" font-family="sans-serif" font-size="14" lengthAdjust="spacing" textLength="101.958" x="165.5" y="611.1426">Identitaetsdienst</text><text fill="#000000" font-family="sans-serif" font-size="14" lengthAdjust="spacing" textLength="120.5859" x="165.5" y="628.752">(Microsoft Account)</text></g><!--link Spieler to System--><g class="link" data-entity-1="Spieler" data-entity-2="System" data-source-line="22" data-uid="lnk9" id="link_Spieler_System"><path d="M194.78,83.1094 C161.95,83.1094 115,83.1094 115,83.1094 C115,83.1094 115,393.9794 115,490.5194" fill="none" id="Spieler-to-System" style="stroke:#181818;stroke-width:1;"/><polygon fill="#181818" points="115,496.5194,119,487.5194,115,491.5194,111,487.5194,115,496.5194" style="stroke:#181818;stroke-width:1;"/><text fill="#000000" font-family="sans-serif" font-size="13" lengthAdjust="spacing" textLength="99.7344" x="15" y="264.4145">Spielen, Chatten,</text><text fill="#000000" font-family="sans-serif" font-size="13" lengthAdjust="spacing" textLength="81.6753" x="24.0295" y="280.7661">Inhalte nutzen</text></g><!--link Dev to System--><g class="link" data-entity-1="Dev" data-entity-2="System" data-source-line="23" data-uid="lnk10" id="link_Dev_System"><path d="M146.75,196.1094 C131.41,196.1094 120,196.1094 120,196.1094 C120,196.1094 120,411.3494 120,490.4294" fill="none" id="Dev-to-System" style="stroke:#181818;stroke-width:1;"/><polygon fill="#181818" points="120,496.4294,124,487.4294,120,491.4294,116,487.4294,120,496.4294" style="stroke:#181818;stroke-width:1;"/><text fill="#000000" font-family="sans-serif" font-size="13" lengthAdjust="spacing" textLength="112.7407" x="7" y="347.3845">Inhalte bereitstellen</text><text fill="#000000" font-family="sans-serif" font-size="13" lengthAdjust="spacing" textLength="105.479" x="10.6309" y="363.7361">(Mods/Datapacks)</text></g><!--link Admin to System--><g class="link" data-entity-1="Admin" data-entity-2="System" data-source-line="24" data-uid="lnk11" id="link_Admin_System"><path d="M322,348.5394 C322,391.4594 322,452.9594 322,490.5294" fill="none" id="Admin-to-System" style="stroke:#181818;stroke-width:1;"/><polygon fill="#181818" points="322,496.5294,326,487.5294,322,491.5294,318,487.5294,322,496.5294" style="stroke:#181818;stroke-width:1;"/><text fill="#000000" font-family="sans-serif" font-size="13" lengthAdjust="spacing" textLength="130.7744" x="330.2427" y="437.0345">Mehrspieler verwalten,</text><text fill="#000000" font-family="sans-serif" font-size="13" lengthAdjust="spacing" textLength="145.2598" x="323" y="453.3861">Moderation/Konfiguration</text></g><!--link Ops to System--><g class="link" data-entity-1="Ops" data-entity-2="System" data-source-line="25" data-uid="lnk12" id="link_Ops_System"><path d="M226,461.2494 C226,472.9394 226,479.4994 226,490.3094" fill="none" id="Ops-to-System" style="stroke:#181818;stroke-width:1;"/><polygon fill="#181818" points="226,496.3094,230,487.3094,226,491.3094,222,487.3094,226,496.3094" style="stroke:#181818;stroke-width:1;"/><text fill="#000000" font-family="sans-serif" font-size="13" lengthAdjust="spacing" textLength="149.5889" x="76" y="493.2745">Betrieb, Support, Updates</text></g><!--link System to Commerce--><g class="link" data-entity-1="System" data-entity-2="Commerce" data-source-line="27" data-uid="lnk13" id="link_System_Commerce"><path d="M142,551.8394 C142,585.6694 142,636.5094 142,670.3494" fill="none" id="System-to-Commerce" style="stroke:#181818;stroke-width:1;"/><polygon fill="#181818" points="142,676.3494,146,667.3494,142,671.3494,138,667.3494,142,676.3494" style="stroke:#181818;stroke-width:1;"/><text fill="#000000" font-family="sans-serif" font-size="13" lengthAdjust="spacing" textLength="117.7935" x="24" y="628.5845">Zahlungsabwicklung</text><text fill="#000000" font-family="sans-serif" font-size="13" lengthAdjust="spacing" textLength="86.7153" x="39.5391" y="644.9361">(Kaeufe, Abos)</text></g><!--link System to Identity--><g class="link" data-entity-1="System" data-entity-2="Identity" data-source-line="28" data-uid="lnk14" id="link_System_Identity"><path d="M226,552.0894 C226,563.0294 226,569.5494 226,580.4494" fill="none" id="System-to-Identity" style="stroke:#181818;stroke-width:1;"/><polygon fill="#181818" points="226,586.4494,230,577.4494,226,581.4494,222,577.4494,226,586.4494" style="stroke:#181818;stroke-width:1;"/><text fill="#000000" font-family="sans-serif" font-size="13" lengthAdjust="spacing" textLength="109.1353" x="227" y="566.7645">Konten &amp; Lizenzen</text><text fill="#000000" font-family="sans-serif" font-size="13" lengthAdjust="spacing" textLength="74.4263" x="244.3545" y="583.1161">(Anmeldung)</text></g><!--SRC=[RLFBRXin3Bpl9_H4-D0wW1U-zr30pWC94ZT0t5oAN6WjRGdMKWk96zlv-bBxC9B29wyipd386OaJJx1oJ2RYLg24EpJMEsCfmcDWeQCKHTexRZ1Y3IRKJM1YMSj9WP6C8EyyVIhnIYQdXY14iU7JHR9OXOFZ7MpH9oeyQKC94DtE2bGkaxd0HV43LiH99V3y9NXF3Aw6rtfBlYhGI8WmMJUEzAAY2M22_XJFbnJVAPQBgdRiaaJCjCeoX_kGX6A7wMv7n7MewvQTdCfRbeCpU_8ZzmszZrLBakXeepphjcbqF9ZUKrH6rHYlkkhd9cNzwvF-MsVPTs7V9fWkFPezBCFngZZl32RdlPVT1Ab3lV7q2LlE3ipWsZjTzWpwaUOlXBvEVQk-H-vsUzIXc6Qwry4x-ArV6umz8y4qM2RuGyQosvSt9EXy-YBbBrhVyYvLsYzf9bnUL9vK9oULj78cXXJKiRmhYePw5UFfCzT3fPgT8Cb0zmM_C2QqB3ryA3tbCPRquSYg2BKAsssNn7B-77UeBdOUfl9sGph8L3EsJ_1DWoj2-glDhUX0Gn2Wx39L_XgD-3b4X7MZ5XN3ipT-O8jUuTpA1t6XHb_0ZKKRYkIazvhpFA5AyniKRDHOxTp5wG9-HJQcGPKwUCXakRdYgG_cN9_PrktQ_bHeWYxG3D6RZScRmMjJeP2cRQWvOqP753MQYfkSwVofoX-Hsgs6PR49UMF_eKT35DqzVuRlyEHqFn_Ts0kkzHKgqLNn3m00]--></g></svg>