<svg xmlns="http://www.w3.org/2000/svg" xmlns:xlink="http://www.w3.org/1999/xlink" contentStyleType="text/css" data-diagram-type="DESCRIPTION" height="708px" preserveAspectRatio="none" style="width:842px;height:708px;background:#FFFFFF;" version="1.1" viewBox="0 0 842 708" width="842px" zoomAndPan="magnify"><title>Minecraft - Technischer Kontext</title><defs/><g><g class="title" data-source-line="1"><text fill="#000000" font-family="sans-serif" font-size="14" font-weight="bold" lengthAdjust="spacing" textLength="213.1514" x="307.6377" y="24.5332">Minecraft - Technischer Kontext</text></g><!--entity Minecraft--><g class="entity" data-entity="Minecraft" data-source-line="9" data-uid="ent0002" id="entity_Minecraft"><rect fill="#F1F1F1" height="55.2188" rx="2.5" ry="2.5" style="stroke:#181818;stroke-width:0.5;" width="231.6338" x="316" y="333.6094"/><text fill="#000000" font-family="sans-serif" font-size="14" lengthAdjust="spacing" textLength="137.7031" x="326" y="358.1426">Minecraft-Spielsystem</text><text fill="#000000" font-family="sans-serif" font-size="14" lengthAdjust="spacing" textLength="211.6338" x="326" y="375.752">(Launcher, Client, Server/Realms)</text></g><!--entity Clients--><g class="entity" data-entity="Clients" data-source-line="12" data-uid="ent0003" id="entity_Clients"><polygon fill="#F1F1F1" points="16,288.6094,26,278.6094,255.9854,278.6094,255.9854,333.8281,245.9854,343.8281,16,343.8281,16,288.6094" style="stroke:#181818;stroke-width:0.5;"/><line style="stroke:#181818;stroke-width:0.5;" x1="245.9854" x2="255.9854" y1="288.6094" y2="278.6094"/><line style="stroke:#181818;stroke-width:0.5;" x1="16" x2="245.9854" y1="288.6094" y2="288.6094"/><line style="stroke:#181818;stroke-width:0.5;" x1="245.9854" x2="245.9854" y1="288.6094" y2="343.8281"/><text fill="#000000" font-family="sans-serif" font-size="14" lengthAdjust="spacing" textLength="72.3926" x="31" y="313.1426">Endgeraete</text><text fill="#000000" font-family="sans-serif" font-size="14" lengthAdjust="spacing" textLength="199.9854" x="31" y="330.752">(Desktop, Konsole, Mobilgeraet)</text></g><!--entity SelfHostHW--><g class="entity" data-entity="SelfHostHW" data-source-line="13" data-uid="ent0004" id="entity_SelfHostHW"><polygon fill="#F1F1F1" points="623,54.6094,633,44.6094,810.0547,44.6094,810.0547,99.8281,800.0547,109.8281,623,109.8281,623,54.6094" style="stroke:#181818;stroke-width:0.5;"/><line style="stroke:#181818;stroke-width:0.5;" x1="800.0547" x2="810.0547" y1="54.6094" y2="44.6094"/><line style="stroke:#181818;stroke-width:0.5;" x1="623" x2="800.0547" y1="54.6094" y2="54.6094"/><line style="stroke:#181818;stroke-width:0.5;" x1="800.0547" x2="800.0547" y1="54.6094" y2="109.8281"/><text fill="#000000" font-family="sans-serif" font-size="14" lengthAdjust="spacing" textLength="147.0547" x="638" y="79.1426">Eigenes Server-System</text><text fill="#000000" font-family="sans-serif" font-size="14" lengthAdjust="spacing" textLength="94.1309" x="638" y="96.752">(Hardware/OS)</text></g><!--entity RealmsHW--><g class="entity" data-entity="RealmsHW" data-source-line="14" data-uid="ent0005" id="entity_RealmsHW"><polygon fill="#F1F1F1" points="617,155.1094,627,145.1094,815.71,145.1094,815.71,182.7188,805.71,192.7188,617,192.7188,617,155.1094" style="stroke:#181818;stroke-width:0.5;"/><line style="stroke:#181818;stroke-width:0.5;" x1="805.71" x2="815.71" y1="155.1094" y2="145.1094"/><line style="stroke:#181818;stroke-width:0.5;" x1="617" x2="805.71" y1="155.1094" y2="155.1094"/><line style="stroke:#181818;stroke-width:0.5;" x1="805.71" x2="805.71" y1="155.1094" y2="192.7188"/><text fill="#000000" font-family="sans-serif" font-size="14" lengthAdjust="spacing" textLength="158.71" x="632" y="179.6426">Minecraft Realms (Cloud)</text></g><!--entity Identity--><g class="entity" data-entity="Identity" data-source-line="15" data-uid="ent0006" id="entity_Identity"><polygon fill="#F1F1F1" points="636,238.6094,646,228.6094,796.5859,228.6094,796.5859,283.8281,786.5859,293.8281,636,293.8281,636,238.6094" style="stroke:#181818;stroke-width:0.5;"/><line style="stroke:#181818;stroke-width:0.5;" x1="786.5859" x2="796.5859" y1="238.6094" y2="228.6094"/><line style="stroke:#181818;stroke-width:0.5;" x1="636" x2="786.5859" y1="238.6094" y2="238.6094"/><line style="stroke:#181818;stroke-width:0.5;" x1="786.5859" x2="786.5859" y1="238.6094" y2="293.8281"/><text fill="#000000" font-family="sans-serif" font-size="14" lengthAdjust="spacing" textLength="101.958" x="651" y="263.1426">Identitaetsdienst</text><text fill="#000000" font-family="sans-serif" font-size="14" lengthAdjust="spacing" textLength="120.5859" x="651" y="280.752">(Microsoft Account)</text></g><!--entity Commerce--><g class="entity" data-entity="Commerce" data-source-line="16" data-uid="ent0007" id="entity_Commerce"><polygon fill="#F1F1F1" points="608,338.6094,618,328.6094,825.4268,328.6094,825.4268,383.8281,815.4268,393.8281,608,393.8281,608,338.6094" style="stroke:#181818;stroke-width:0.5;"/><line style="stroke:#181818;stroke-width:0.5;" x1="815.4268" x2="825.4268" y1="338.6094" y2="328.6094"/><line style="stroke:#181818;stroke-width:0.5;" x1="608" x2="815.4268" y1="338.6094" y2="338.6094"/><line style="stroke:#181818;stroke-width:0.5;" x1="815.4268" x2="815.4268" y1="338.6094" y2="393.8281"/><text fill="#000000" font-family="sans-serif" font-size="14" lengthAdjust="spacing" textLength="177.4268" x="623" y="363.1426">Zahlungsdienstleister / Store</text><text fill="#000000" font-family="sans-serif" font-size="14" lengthAdjust="spacing" textLength="138.4551" x="623" y="380.752">(Microsoft Commerce)</text></g><!--entity WorldStore--><g class="entity" data-entity="WorldStore" data-source-line="17" data-uid="ent0008" id="entity_WorldStore"><path d="M616.5,439.1094 C616.5,429.1094 716.731,429.1094 716.731,429.1094 C716.731,429.1094 816.9619,429.1094 816.9619,439.1094 L816.9619,483.3281 C816.9619,493.3281 716.731,493.3281 716.731,493.3281 C716.731,493.3281 616.5,493.3281 616.5,483.3281 L616.5,439.1094" fill="#F1F1F1" style="stroke:#181818;stroke-width:0.5;"/><path d="M616.5,439.1094 C616.5,449.1094 716.731,449.1094 716.731,449.1094 C716.731,449.1094 816.9619,449.1094 816.9619,439.1094" fill="none" style="stroke:#181818;stroke-width:0.5;"/><text fill="#000000" font-family="sans-serif" font-size="14" lengthAdjust="spacing" textLength="146.2822" x="626.5" y="467.6426">World &amp; Player Storage</text><text fill="#000000" font-family="sans-serif" font-size="14" lengthAdjust="spacing" textLength="180.4619" x="626.5" y="485.252">(Filesystem: NBT/Anvil .mca)</text></g><!--entity PluginDB--><g class="entity" data-entity="PluginDB" data-source-line="18" data-uid="ent0009" id="entity_PluginDB"><path d="M615,538.1094 C615,528.1094 716.4204,528.1094 716.4204,528.1094 C716.4204,528.1094 817.8408,528.1094 817.8408,538.1094 L817.8408,582.3281 C817.8408,592.3281 716.4204,592.3281 716.4204,592.3281 C716.4204,592.3281 615,592.3281 615,582.3281 L615,538.1094" fill="#F1F1F1" style="stroke:#181818;stroke-width:0.5;"/><path d="M615,538.1094 C615,548.1094 716.4204,548.1094 716.4204,548.1094 C716.4204,548.1094 817.8408,548.1094 817.8408,538.1094" fill="none" style="stroke:#181818;stroke-width:0.5;"/><text fill="#000000" font-family="sans-serif" font-size="14" lengthAdjust="spacing" textLength="63.0273" x="625" y="566.6426">Plugin-DB</text><text fill="#000000" font-family="sans-serif" font-size="14" lengthAdjust="spacing" textLength="182.8408" x="625" y="584.252">(SQLite/MySQL/PostgreSQL)</text></g><!--entity RealmsStorage--><g class="entity" data-entity="RealmsStorage" data-source-line="19" data-uid="ent0010" id="entity_RealmsStorage"><path d="M651,637.1094 C651,627.1094 716.6514,627.1094 716.6514,627.1094 C716.6514,627.1094 782.3027,627.1094 782.3027,637.1094 L782.3027,681.3281 C782.3027,691.3281 716.6514,691.3281 716.6514,691.3281 C716.6514,691.3281 651,691.3281 651,681.3281 L651,637.1094" fill="#F1F1F1" style="stroke:#181818;stroke-width:0.5;"/><path d="M651,637.1094 C651,647.1094 716.6514,647.1094 716.6514,647.1094 C716.6514,647.1094 782.3027,647.1094 782.3027,637.1094" fill="none" style="stroke:#181818;stroke-width:0.5;"/><text fill="#000000" font-family="sans-serif" font-size="14" lengthAdjust="spacing" textLength="111.3027" x="661" y="665.6426">Managed Storage</text><text fill="#000000" font-family="sans-serif" font-size="14" lengthAdjust="spacing" textLength="98.0205" x="661" y="683.252">(Realms-Cloud)</text></g><!--entity ModdingEnv--><g class="entity" data-entity="ModdingEnv" data-source-line="20" data-uid="ent0011" id="entity_ModdingEnv"><polygon fill="#F1F1F1" points="59,388.6094,69,378.6094,213.3789,378.6094,213.3789,433.8281,203.3789,443.8281,59,443.8281,59,388.6094" style="stroke:#181818;stroke-width:0.5;"/><line style="stroke:#181818;stroke-width:0.5;" x1="203.3789" x2="213.3789" y1="388.6094" y2="378.6094"/><line style="stroke:#181818;stroke-width:0.5;" x1="59" x2="203.3789" y1="388.6094" y2="388.6094"/><line style="stroke:#181818;stroke-width:0.5;" x1="203.3789" x2="203.3789" y1="388.6094" y2="443.8281"/><text fill="#000000" font-family="sans-serif" font-size="14" lengthAdjust="spacing" textLength="114.3789" x="74" y="413.1426">Modding-Plattform</text><text fill="#000000" font-family="sans-serif" font-size="14" lengthAdjust="spacing" textLength="88.6826" x="74" y="430.752">(Forge/Fabric)</text></g><!--link Clients to Minecraft--><g class="link" data-entity-1="Clients" data-entity-2="Minecraft" data-source-line="23" data-uid="lnk12" id="link_Clients_Minecraft"><path d="M256.39,338.6094 C275.92,338.6094 290.11,338.6094 309.54,338.6094" fill="none" id="Clients-to-Minecraft" style="stroke:#181818;stroke-width:1;"/><polygon fill="#181818" points="315.54,338.6094,306.54,334.6094,310.54,338.6094,306.54,342.6094,315.54,338.6094" style="stroke:#181818;stroke-width:1;"/><text fill="#000000" font-family="sans-serif" font-size="13" lengthAdjust="spacing" textLength="41.8945" x="186.4004" y="353.1045">TCP/IP</text><text fill="#000000" font-family="sans-serif" font-size="13" lengthAdjust="spacing" textLength="156.7554" x="128.97" y="369.4561">(Minecraft-Game-Protokoll)</text></g><!--link Minecraft to Identity--><g class="link" data-entity-1="Minecraft" data-entity-2="Identity" data-source-line="24" data-uid="lnk13" id="link_Minecraft_Identity"><path d="M490,333.6094 C490,312.1994 490,286.1094 490,286.1094 C490,286.1094 564.64,286.1094 629.69,286.1094" fill="none" id="Minecraft-to-Identity" style="stroke:#181818;stroke-width:1;"/><polygon fill="#181818" points="635.69,286.1094,626.69,282.1094,630.69,286.1094,626.69,290.1094,635.69,286.1094" style="stroke:#181818;stroke-width:1;"/><text fill="#000000" font-family="sans-serif" font-size="13" lengthAdjust="spacing" textLength="42.6118" x="475.9677" y="300.6045">HTTPS</text><text fill="#000000" font-family="sans-serif" font-size="13" lengthAdjust="spacing" textLength="82.3672" x="456.09" y="316.9561">(Auth / Token)</text></g><!--link Minecraft to Commerce--><g class="link" data-entity-1="Minecraft" data-entity-2="Commerce" data-source-line="25" data-uid="lnk14" id="link_Minecraft_Commerce"><path d="M548.13,361.1094 C567.79,361.1094 582.15,361.1094 601.62,361.1094" fill="none" id="Minecraft-to-Commerce" style="stroke:#181818;stroke-width:1;"/><polygon fill="#181818" points="607.62,361.1094,598.62,357.1094,602.62,361.1094,598.62,365.1094,607.62,361.1094" style="stroke:#181818;stroke-width:1;"/><text fill="#000000" font-family="sans-serif" font-size="13" lengthAdjust="spacing" textLength="42.6118" x="510.7377" y="341.6045">HTTPS</text><text fill="#000000" font-family="sans-serif" font-size="13" lengthAdjust="spacing" textLength="90.3271" x="486.88" y="357.9561">(Kaeufe / Abos)</text></g><!--link Minecraft to SelfHostHW--><g class="link" data-entity-1="Minecraft" data-entity-2="SelfHostHW" data-source-line="27" data-uid="lnk15" id="link_Minecraft_SelfHostHW"><path d="M374,333.3594 C374,261.8994 374,77.1094 374,77.1094 C374,77.1094 515.5,77.1094 616.91,77.1094" fill="none" id="Minecraft-to-SelfHostHW" style="stroke:#181818;stroke-width:1;"/><polygon fill="#181818" points="622.91,77.1094,613.91,73.1094,617.91,77.1094,613.91,81.1094,622.91,77.1094" style="stroke:#181818;stroke-width:1;"/><text fill="#000000" font-family="sans-serif" font-size="13" lengthAdjust="spacing" textLength="69.3672" x="270.8618" y="95.2745">Deployment</text><text fill="#000000" font-family="sans-serif" font-size="13" lengthAdjust="spacing" textLength="135.0908" x="238" y="111.6261">Minecraft Server (Java)</text></g><!--link Minecraft to RealmsHW--><g class="link" data-entity-1="Minecraft" data-entity-2="RealmsHW" data-source-line="28" data-uid="lnk16" id="link_Minecraft_RealmsHW"><path d="M432,333.5994 C432,280.5094 432,169.1094 432,169.1094 C432,169.1094 528.95,169.1094 611,169.1094" fill="none" id="Minecraft-to-RealmsHW" style="stroke:#181818;stroke-width:1;"/><polygon fill="#181818" points="617,169.1094,608,165.1094,612,169.1094,608,173.1094,617,169.1094" style="stroke:#181818;stroke-width:1;"/><text fill="#000000" font-family="sans-serif" font-size="13" lengthAdjust="spacing" textLength="69.3672" x="318.4241" y="183.6045">Deployment</text><text fill="#000000" font-family="sans-serif" font-size="13" lengthAdjust="spacing" textLength="177.7153" x="264.25" y="199.9561">Realms-Server (Java/Bedrock)</text></g><!--link Minecraft to WorldStore--><g class="link" data-entity-1="Minecraft" data-entity-2="WorldStore" data-source-line="30" data-uid="lnk17" id="link_Minecraft_WorldStore"><path d="M490,388.6994 C490,410.1794 490,436.3594 490,436.3594 C490,436.3594 549.82,436.3594 610.49,436.3594" fill="none" id="Minecraft-to-WorldStore" style="stroke:#181818;stroke-width:1;"/><polygon fill="#181818" points="616.49,436.3594,607.49,432.3594,611.49,436.3594,607.49,440.3594,616.49,436.3594" style="stroke:#181818;stroke-width:1;"/><text fill="#000000" font-family="sans-serif" font-size="13" lengthAdjust="spacing" textLength="62.1182" x="441.0741" y="450.8545">Filesystem</text><text fill="#000000" font-family="sans-serif" font-size="13" lengthAdjust="spacing" textLength="113.4263" x="415.42" y="467.2061">World/Player-Daten</text></g><!--link Minecraft to PluginDB--><g class="link" data-entity-1="Minecraft" data-entity-2="PluginDB" data-source-line="31" data-uid="lnk18" id="link_Minecraft_PluginDB"><path d="M432,388.7794 C432,443.4594 432,560.1094 432,560.1094 C432,560.1094 527.29,560.1094 608.99,560.1094" fill="none" id="Minecraft-to-PluginDB" style="stroke:#181818;stroke-width:1;"/><polygon fill="#181818" points="614.99,560.1094,605.99,556.1094,609.99,560.1094,605.99,564.1094,614.99,560.1094" style="stroke:#181818;stroke-width:1;"/><text fill="#000000" font-family="sans-serif" font-size="13" lengthAdjust="spacing" textLength="59.23" x="369.7931" y="574.6045">DB-Zugriff</text><text fill="#000000" font-family="sans-serif" font-size="13" lengthAdjust="spacing" textLength="75.1563" x="361.83" y="590.9561">Plugin-Daten</text></g><!--link Minecraft to RealmsStorage--><g class="link" data-entity-1="Minecraft" data-entity-2="RealmsStorage" data-source-line="32" data-uid="lnk19" id="link_Minecraft_RealmsStorage"><path d="M374,388.6094 C374,462.3794 374,659.1094 374,659.1094 C374,659.1094 545.42,659.1094 644.87,659.1094" fill="none" id="Minecraft-to-RealmsStorage" style="stroke:#181818;stroke-width:1;"/><polygon fill="#181818" points="650.87,659.1094,641.87,655.1094,645.87,659.1094,641.87,663.1094,650.87,659.1094" style="stroke:#181818;stroke-width:1;"/><text fill="#000000" font-family="sans-serif" font-size="13" lengthAdjust="spacing" textLength="60.6899" x="304.3773" y="673.6045">Persistenz</text><text fill="#000000" font-family="sans-serif" font-size="13" lengthAdjust="spacing" textLength="83.0845" x="293.18" y="689.9561">Realms-Daten</text></g><!--link ModdingEnv to Minecraft--><g class="link" data-entity-1="ModdingEnv" data-entity-2="Minecraft" data-source-line="34" data-uid="lnk20" id="link_ModdingEnv_Minecraft"><path d="M213.38,383.6094 C244.64,383.6094 275.4,383.6094 309.75,383.6094" fill="none" id="ModdingEnv-to-Minecraft" style="stroke:#181818;stroke-width:1;"/><polygon fill="#181818" points="315.75,383.6094,306.75,379.6094,310.75,383.6094,306.75,387.6094,315.75,383.6094" style="stroke:#181818;stroke-width:1;"/><text fill="#000000" font-family="sans-serif" font-size="13" lengthAdjust="spacing" textLength="78.0381" x="265.57" y="398.1045">Plugins/Mods</text><text fill="#000000" font-family="sans-serif" font-size="13" lengthAdjust="spacing" textLength="69.3672" x="269.9054" y="414.4561">Deployment</text></g><!--SRC=[RLDBRvj04BxpAqOvj8baoZs7IduaTPeufSLIfCYNzJB0oikEjRiuSNzz1oyOulI6pVUQcG-ll4POAOFIYi9336kKbL5ELcZXaOp7Tnz5RgVCNbXHWwHwJmQDp_oHcHQb5wRKE89eLlF7FG9PNz7eXQj4Jc_Ab508xJ3Io8wUmAgoyf2hLaoHYQAla1sTnngeW0UEOD5vO0hCj92xBRr7Pr-uEeUFixr2xKxCZRb-4erffvZ0N2iEF84CxG5jyWU5hjtD5GWtJDwQ3gF3iv3LLjWWXf6Xd9tkJ5wY5UYHvHVeTfxsatP9ZZHEO4LRfGCWY0TVrxDLYGPTboBE-fnBOVCtOJ7vbGLQXhfOalFBbuuvd2T4X-kvfYOFwF3N6VkGiwNodC7bxEuyEwoKjEI8-LCfgJ5Tl0vwx9YlejADAJkQHiNvB2IGURBuGMLETOrMOZTbzolAXHTRuLZgXQpEuGkaMXnPerKGPQjnhpI6dTx2ysoTJCr1QVXMIn6qJiIJuKWjrKsfJBoOiK3s-qbvJ5P7VaXINb9faHy3Em0Nin5t9GmxvwC8OL_nfmrsY7xbbETSr9WdyBuWsnxgdco9oRtOMYMxzWJKdJbSrEUHRP7BcK1goTEED7yXNHqWZh-FlhXRMC_Jv24zRRXlyWzHOtoctaIZ3vJ9_U6OkrolquofqyPNxBQc7PfBU7-W4VnHO5EqyQPRSZVH1M4e85CMkDTqhDbnOmPOA35S_nG7SUdND_A2t2r-p4ncc5kIkqy9XXwmo52QZJczI4AlueNmQ2wOVGTQyrdysfHM5SN6z1tw3-F3-PcMedLjzytVS-P0YuPpVxfXq7S9Gzp636D7_m00]--></g></svg>