<svg xmlns="http://www.w3.org/2000/svg" xmlns:xlink="http://www.w3.org/1999/xlink" contentStyleType="text/css" data-diagram-type="DESCRIPTION" height="559px" preserveAspectRatio="none" style="width:1349px;height:559px;background:#FFFFFF;" version="1.1" viewBox="0 0 1349 559" width="1349px" zoomAndPan="magnify"><title>Minecraft - Verteilungsdiagramm (Deployment)</title><defs/><g><g class="title" data-source-line="1"><text fill="#000000" font-family="sans-serif" font-size="14" font-weight="bold" lengthAdjust="spacing" textLength="311.165" x="512.1675" y="24.5332">Minecraft - Verteilungsdiagramm (Deployment)</text></g><!--cluster DesktopHW--><g class="cluster" data-entity="DesktopHW" data-source-line="11" data-uid="ent0002" id="cluster_DesktopHW"><polygon fill="none" points="16,250.6094,26,240.6094,598,240.6094,598,521.6094,588,531.6094,16,531.6094,16,250.6094" style="stroke:#181818;stroke-width:1;"/><line style="stroke:#181818;stroke-width:1;" x1="588" x2="598" y1="250.6094" y2="240.6094"/><line style="stroke:#181818;stroke-width:1;" x1="16" x2="588" y1="250.6094" y2="250.6094"/><line style="stroke:#181818;stroke-width:1;" x1="588" x2="588" y1="250.6094" y2="531.6094"/><text fill="#000000" font-family="sans-serif" font-size="14" font-weight="bold" lengthAdjust="spacing" textLength="79.3447" x="263.3276" y="268.1426">Desktop-PC</text></g><!--cluster DesktopOS--><g class="cluster" data-entity="DesktopOS" data-source-line="12" data-uid="ent0003" id="cluster_DesktopOS"><polygon fill="none" points="40,299.6094,50,289.6094,574,289.6094,574,497.6094,564,507.6094,40,507.6094,40,299.6094" style="stroke:#181818;stroke-width:1;"/><line style="stroke:#181818;stroke-width:1;" x1="564" x2="574" y1="299.6094" y2="289.6094"/><line style="stroke:#181818;stroke-width:1;" x1="40" x2="564" y1="299.6094" y2="299.6094"/><line style="stroke:#181818;stroke-width:1;" x1="564" x2="564" y1="299.6094" y2="507.6094"/><text fill="#000000" font-family="sans-serif" font-size="14" font-weight="bold" lengthAdjust="spacing" textLength="79.3516" x="263.3242" y="317.1426">Desktop OS</text></g><!--cluster ClientJava--><g class="cluster" data-entity="ClientJava" data-source-line="13" data-uid="ent0004" id="cluster_ClientJava"><rect fill="none" height="129" rx="2.5" ry="2.5" style="stroke:#181818;stroke-width:1;" width="186" x="356" y="346.6094"/><polygon fill="none" points="525,351.6094,525,365.6094,537,365.6094,537,357.6094,531,351.6094,525,351.6094" style="stroke:#181818;stroke-width:1;"/><line style="stroke:#181818;stroke-width:1;" x1="531" x2="531" y1="351.6094" y2="357.6094"/><line style="stroke:#181818;stroke-width:1;" x1="537" x2="531" y1="357.6094" y2="357.6094"/><text fill="#000000" font-family="sans-serif" font-size="14" font-weight="bold" lengthAdjust="spacing" textLength="149.3721" x="374.314" y="363.1426">Minecraft Client (Java)</text></g><!--cluster MobileHW--><g class="cluster" data-entity="MobileHW" data-source-line="21" data-uid="ent0008" id="cluster_MobileHW"><polygon fill="none" points="313,54.6094,323,44.6094,585,44.6094,585,206.6094,575,216.6094,313,216.6094,313,54.6094" style="stroke:#181818;stroke-width:1;"/><line style="stroke:#181818;stroke-width:1;" x1="575" x2="585" y1="54.6094" y2="44.6094"/><line style="stroke:#181818;stroke-width:1;" x1="313" x2="575" y1="54.6094" y2="54.6094"/><line style="stroke:#181818;stroke-width:1;" x1="575" x2="575" y1="54.6094" y2="216.6094"/><text fill="#000000" font-family="sans-serif" font-size="14" font-weight="bold" lengthAdjust="spacing" textLength="145.4619" x="372.269" y="72.1426">Konsole / Mobilgeraet</text></g><!--cluster MobileOS--><g class="cluster" data-entity="MobileOS" data-source-line="22" data-uid="ent0009" id="cluster_MobileOS"><polygon fill="none" points="337,103.6094,347,93.6094,561,93.6094,561,182.6094,551,192.6094,337,192.6094,337,103.6094" style="stroke:#181818;stroke-width:1;"/><line style="stroke:#181818;stroke-width:1;" x1="551" x2="561" y1="103.6094" y2="93.6094"/><line style="stroke:#181818;stroke-width:1;" x1="337" x2="551" y1="103.6094" y2="103.6094"/><line style="stroke:#181818;stroke-width:1;" x1="551" x2="551" y1="103.6094" y2="192.6094"/><text fill="#000000" font-family="sans-serif" font-size="14" font-weight="bold" lengthAdjust="spacing" textLength="86.3379" x="401.8311" y="121.1426">Plattform-OS</text></g><!--cluster SelfHostHW--><g class="cluster" data-entity="SelfHostHW" data-source-line="27" data-uid="ent0011" id="cluster_SelfHostHW"><polygon fill="none" points="645,365.6094,655,355.6094,1332.5,355.6094,1332.5,532.6094,1322.5,542.6094,645,542.6094,645,365.6094" style="stroke:#181818;stroke-width:1;"/><line style="stroke:#181818;stroke-width:1;" x1="1322.5" x2="1332.5" y1="365.6094" y2="355.6094"/><line style="stroke:#181818;stroke-width:1;" x1="645" x2="1322.5" y1="365.6094" y2="365.6094"/><line style="stroke:#181818;stroke-width:1;" x1="1322.5" x2="1322.5" y1="365.6094" y2="542.6094"/><text fill="#000000" font-family="sans-serif" font-size="14" font-weight="bold" lengthAdjust="spacing" textLength="155.6406" x="906.9297" y="383.1426">Eigenes Server-System</text></g><!--cluster SelfHostOS--><g class="cluster" data-entity="SelfHostOS" data-source-line="28" data-uid="ent0012" id="cluster_SelfHostOS"><polygon fill="none" points="669,422.6094,679,412.6094,876,412.6094,876,501.6094,866,511.6094,669,511.6094,669,422.6094" style="stroke:#181818;stroke-width:1;"/><line style="stroke:#181818;stroke-width:1;" x1="866" x2="876" y1="422.6094" y2="412.6094"/><line style="stroke:#181818;stroke-width:1;" x1="669" x2="866" y1="422.6094" y2="422.6094"/><line style="stroke:#181818;stroke-width:1;" x1="866" x2="866" y1="422.6094" y2="511.6094"/><text fill="#000000" font-family="sans-serif" font-size="14" font-weight="bold" lengthAdjust="spacing" textLength="67.71" x="734.645" y="440.1426">Server OS</text></g><!--cluster RealmsHW--><g class="cluster" data-entity="RealmsHW" data-source-line="35" data-uid="ent0016" id="cluster_RealmsHW"><polygon fill="none" points="622,68.6094,632,58.6094,1246.5,58.6094,1246.5,226.6094,1236.5,236.6094,622,236.6094,622,68.6094" style="stroke:#181818;stroke-width:1;"/><line style="stroke:#181818;stroke-width:1;" x1="1236.5" x2="1246.5" y1="68.6094" y2="58.6094"/><line style="stroke:#181818;stroke-width:1;" x1="622" x2="1236.5" y1="68.6094" y2="68.6094"/><line style="stroke:#181818;stroke-width:1;" x1="1236.5" x2="1236.5" y1="68.6094" y2="236.6094"/><text fill="#000000" font-family="sans-serif" font-size="14" font-weight="bold" lengthAdjust="spacing" textLength="168.7998" x="845.8501" y="86.1426">Minecraft Realms (Cloud)</text></g><!--cluster RealmsEnv--><g class="cluster" data-entity="RealmsEnv" data-source-line="36" data-uid="ent0017" id="cluster_RealmsEnv"><polygon fill="none" points="646,117.6094,656,107.6094,1222.5,107.6094,1222.5,202.6094,1212.5,212.6094,646,212.6094,646,117.6094" style="stroke:#181818;stroke-width:1;"/><line style="stroke:#181818;stroke-width:1;" x1="1212.5" x2="1222.5" y1="117.6094" y2="107.6094"/><line style="stroke:#181818;stroke-width:1;" x1="646" x2="1212.5" y1="117.6094" y2="117.6094"/><line style="stroke:#181818;stroke-width:1;" x1="1212.5" x2="1212.5" y1="117.6094" y2="212.6094"/><text fill="#000000" font-family="sans-serif" font-size="14" font-weight="bold" lengthAdjust="spacing" textLength="114.3857" x="873.0571" y="135.1426">Managed Service</text></g><!--entity Launcher--><g class="entity" data-entity="Launcher" data-source-line="16" data-uid="ent0006" id="entity_Launcher"><rect fill="#F1F1F1" height="40.6094" rx="2.5" ry="2.5" style="stroke:#181818;stroke-width:0.5;" width="88.3789" x="130.5" y="374.1094"/><polygon fill="#F1F1F1" points="201.8789,379.1094,201.8789,393.1094,213.8789,393.1094,213.8789,385.1094,207.8789,379.1094,201.8789,379.1094" style="stroke:#181818;stroke-width:0.5;"/><line style="stroke:#181818;stroke-width:0.5;" x1="207.8789" x2="207.8789" y1="379.1094" y2="385.1094"/><line style="stroke:#181818;stroke-width:0.5;" x1="213.8789" x2="207.8789" y1="385.1094" y2="385.1094"/><text fill="#000000" font-family="sans-serif" font-size="14" lengthAdjust="spacing" textLength="58.3789" x="140.5" y="401.6426">Launcher</text></g><!--entity Modding--><g class="entity" data-entity="Modding" data-source-line="17" data-uid="ent0007" id="entity_Modding"><rect fill="#F1F1F1" height="40.6094" rx="2.5" ry="2.5" style="stroke:#181818;stroke-width:0.5;" width="236.9512" x="56" y="450.1094"/><polygon fill="#F1F1F1" points="275.9512,455.1094,275.9512,469.1094,287.9512,469.1094,287.9512,461.1094,281.9512,455.1094,275.9512,455.1094" style="stroke:#181818;stroke-width:0.5;"/><line style="stroke:#181818;stroke-width:0.5;" x1="281.9512" x2="281.9512" y1="455.1094" y2="461.1094"/><line style="stroke:#181818;stroke-width:0.5;" x1="287.9512" x2="281.9512" y1="461.1094" y2="461.1094"/><text fill="#000000" font-family="sans-serif" font-size="14" lengthAdjust="spacing" textLength="206.9512" x="66" y="477.6426">Modding-Plattform (Forge/Fabric)</text></g><!--entity IntegratedSrv--><g class="entity" data-entity="IntegratedSrv" data-source-line="14" data-uid="ent0005" id="entity_IntegratedSrv"><rect fill="#F1F1F1" height="40.6094" rx="2.5" ry="2.5" style="stroke:#181818;stroke-width:0.5;" width="138.1719" x="380" y="391.1094"/><polygon fill="#F1F1F1" points="501.1719,396.1094,501.1719,410.1094,513.1719,410.1094,513.1719,402.1094,507.1719,396.1094,501.1719,396.1094" style="stroke:#181818;stroke-width:0.5;"/><line style="stroke:#181818;stroke-width:0.5;" x1="507.1719" x2="507.1719" y1="396.1094" y2="402.1094"/><line style="stroke:#181818;stroke-width:0.5;" x1="513.1719" x2="507.1719" y1="402.1094" y2="402.1094"/><text fill="#000000" font-family="sans-serif" font-size="14" lengthAdjust="spacing" textLength="108.1719" x="390" y="418.6426">Integrated Server</text></g><!--entity ClientBedrock--><g class="entity" data-entity="ClientBedrock" data-source-line="23" data-uid="ent0010" id="entity_ClientBedrock"><rect fill="#F1F1F1" height="40.6094" rx="2.5" ry="2.5" style="stroke:#181818;stroke-width:0.5;" width="191.8271" x="353" y="135.1094"/><polygon fill="#F1F1F1" points="527.8271,140.1094,527.8271,154.1094,539.8271,154.1094,539.8271,146.1094,533.8271,140.1094,527.8271,140.1094" style="stroke:#181818;stroke-width:0.5;"/><line style="stroke:#181818;stroke-width:0.5;" x1="533.8271" x2="533.8271" y1="140.1094" y2="146.1094"/><line style="stroke:#181818;stroke-width:0.5;" x1="539.8271" x2="533.8271" y1="146.1094" y2="146.1094"/><text fill="#000000" font-family="sans-serif" font-size="14" lengthAdjust="spacing" textLength="161.8271" x="363" y="162.6426">Minecraft Client (Bedrock)</text></g><!--entity WorldStore--><g class="entity" data-entity="WorldStore" data-source-line="31" data-uid="ent0014" id="entity_WorldStore"><path d="M965.5,489.1094 C965.5,479.1094 1140.8169,479.1094 1140.8169,479.1094 C1140.8169,479.1094 1316.1338,479.1094 1316.1338,489.1094 L1316.1338,515.7188 C1316.1338,525.7188 1140.8169,525.7188 1140.8169,525.7188 C1140.8169,525.7188 965.5,525.7188 965.5,515.7188 L965.5,489.1094" fill="#F1F1F1" style="stroke:#181818;stroke-width:0.5;"/><path d="M965.5,489.1094 C965.5,499.1094 1140.8169,499.1094 1140.8169,499.1094 C1140.8169,499.1094 1316.1338,499.1094 1316.1338,489.1094" fill="none" style="stroke:#181818;stroke-width:0.5;"/><text fill="#000000" font-family="sans-serif" font-size="14" lengthAdjust="spacing" textLength="330.6338" x="975.5" y="517.6426">World &amp; Player Storage (Filesystem: NBT/Anvil .mca)</text></g><!--entity PluginDB--><g class="entity" data-entity="PluginDB" data-source-line="32" data-uid="ent0015" id="entity_PluginDB"><path d="M1006,407.1094 C1006,397.1094 1140.8789,397.1094 1140.8789,397.1094 C1140.8789,397.1094 1275.7578,397.1094 1275.7578,407.1094 L1275.7578,433.7188 C1275.7578,443.7188 1140.8789,443.7188 1140.8789,443.7188 C1140.8789,443.7188 1006,443.7188 1006,433.7188 L1006,407.1094" fill="#F1F1F1" style="stroke:#181818;stroke-width:0.5;"/><path d="M1006,407.1094 C1006,417.1094 1140.8789,417.1094 1140.8789,417.1094 C1140.8789,417.1094 1275.7578,417.1094 1275.7578,407.1094" fill="none" style="stroke:#181818;stroke-width:0.5;"/><text fill="#000000" font-family="sans-serif" font-size="14" lengthAdjust="spacing" textLength="249.7578" x="1016" y="435.6426">Plugin-DB (SQLite/MySQL/PostgreSQL)</text></g><!--entity ServerJava--><g class="entity" data-entity="ServerJava" data-source-line="29" data-uid="ent0013" id="entity_ServerJava"><rect fill="#F1F1F1" height="40.6094" rx="2.5" ry="2.5" style="stroke:#181818;stroke-width:0.5;" width="175.4824" x="685" y="454.1094"/><polygon fill="#F1F1F1" points="843.4824,459.1094,843.4824,473.1094,855.4824,473.1094,855.4824,465.1094,849.4824,459.1094,843.4824,459.1094" style="stroke:#181818;stroke-width:0.5;"/><line style="stroke:#181818;stroke-width:0.5;" x1="849.4824" x2="849.4824" y1="459.1094" y2="465.1094"/><line style="stroke:#181818;stroke-width:0.5;" x1="855.4824" x2="849.4824" y1="465.1094" y2="465.1094"/><text fill="#000000" font-family="sans-serif" font-size="14" lengthAdjust="spacing" textLength="145.4824" x="695" y="481.6426">Minecraft Server (Java)</text></g><!--entity RealmsSrv--><g class="entity" data-entity="RealmsSrv" data-source-line="37" data-uid="ent0018" id="entity_RealmsSrv"><rect fill="#F1F1F1" height="40.6094" rx="2.5" ry="2.5" style="stroke:#181818;stroke-width:0.5;" width="221.3857" x="662" y="152.1094"/><polygon fill="#F1F1F1" points="866.3857,157.1094,866.3857,171.1094,878.3857,171.1094,878.3857,163.1094,872.3857,157.1094,866.3857,157.1094" style="stroke:#181818;stroke-width:0.5;"/><line style="stroke:#181818;stroke-width:0.5;" x1="872.3857" x2="872.3857" y1="157.1094" y2="163.1094"/><line style="stroke:#181818;stroke-width:0.5;" x1="878.3857" x2="872.3857" y1="163.1094" y2="163.1094"/><text fill="#000000" font-family="sans-serif" font-size="14" lengthAdjust="spacing" textLength="191.3857" x="672" y="179.6426">Realms-Server (Java/Bedrock)</text></g><!--entity RealmsStorage--><g class="entity" data-entity="RealmsStorage" data-source-line="38" data-uid="ent0019" id="entity_RealmsStorage"><path d="M1075.5,159.1094 C1075.5,149.1094 1141.1514,149.1094 1141.1514,149.1094 C1141.1514,149.1094 1206.8027,149.1094 1206.8027,159.1094 L1206.8027,185.7188 C1206.8027,195.7188 1141.1514,195.7188 1141.1514,195.7188 C1141.1514,195.7188 1075.5,195.7188 1075.5,185.7188 L1075.5,159.1094" fill="#F1F1F1" style="stroke:#181818;stroke-width:0.5;"/><path d="M1075.5,159.1094 C1075.5,169.1094 1141.1514,169.1094 1141.1514,169.1094 C1141.1514,169.1094 1206.8027,169.1094 1206.8027,159.1094" fill="none" style="stroke:#181818;stroke-width:0.5;"/><text fill="#000000" font-family="sans-serif" font-size="14" lengthAdjust="spacing" textLength="111.3027" x="1085.5" y="187.6426">Managed Storage</text></g><!--entity Xbox--><g class="entity" data-entity="Xbox" data-source-line="42" data-uid="ent0020" id="entity_Xbox"><polygon fill="#F1F1F1" points="639.5,275.6094,649.5,265.6094,905.9336,265.6094,905.9336,303.2188,895.9336,313.2188,639.5,313.2188,639.5,275.6094" style="stroke:#181818;stroke-width:0.5;"/><line style="stroke:#181818;stroke-width:0.5;" x1="895.9336" x2="905.9336" y1="275.6094" y2="265.6094"/><line style="stroke:#181818;stroke-width:0.5;" x1="639.5" x2="895.9336" y1="275.6094" y2="275.6094"/><line style="stroke:#181818;stroke-width:0.5;" x1="895.9336" x2="895.9336" y1="275.6094" y2="313.2188"/><text fill="#000000" font-family="sans-serif" font-size="14" lengthAdjust="spacing" textLength="226.4336" x="654.5" y="300.1426">Identitaetsdienst (Microsoft Account)</text></g><!--link ClientJava to ServerJava--><g class="link" data-entity-1="ClientJava" data-entity-2="ServerJava" data-source-line="45" data-uid="lnk21" id="link_ClientJava_ServerJava"><path d="M542.5391,467.6094 C543.2735,467.6094 544.0102,467.6094 544.7491,467.6094 C547.7047,467.6094 550.6958,467.6094 553.7174,467.6094 C559.7605,467.6094 565.9254,467.6094 572.1719,467.6094 C584.6647,467.6094 597.4837,467.6094 610.3064,467.6094 C635.9519,467.6094 655.6125,467.6094 678.71,467.6094" fill="none" id="ClientJava-to-ServerJava" style="stroke:#181818;stroke-width:1;"/><polygon fill="#181818" points="684.71,467.6094,675.71,463.6094,679.71,467.6094,675.71,471.6094,684.71,467.6094" style="stroke:#181818;stroke-width:1;"/><text fill="#000000" font-family="sans-serif" font-size="13" lengthAdjust="spacing" textLength="41.8945" x="525.12" y="482.1045">TCP/IP</text></g><!--link ClientJava to RealmsSrv--><g class="link" data-entity-1="ClientJava" data-entity-2="RealmsSrv" data-source-line="46" data-uid="lnk22" id="link_ClientJava_RealmsSrv"><path d="M449.5,475.6256 C449.5,475.7114 449.5,475.7967 449.5,475.8813 C449.5,476.0506 449.5,476.2174 449.5,476.381 C449.5,477.0356 449.5,477.6403 449.5,478.1556 C449.5,479.1863 449.5,479.8594 449.5,479.8594 C449.5,479.8594 531.5,479.8594 531.5,479.8594 C531.5,479.8594 531.5,184.6094 531.5,184.6094 C531.5,184.6094 592.52,184.6094 655.87,184.6094" fill="none" id="ClientJava-to-RealmsSrv" style="stroke:#181818;stroke-width:1;"/><polygon fill="#181818" points="661.87,184.6094,652.87,180.6094,656.87,184.6094,652.87,188.6094,661.87,184.6094" style="stroke:#181818;stroke-width:1;"/><text fill="#000000" font-family="sans-serif" font-size="13" lengthAdjust="spacing" textLength="41.8945" x="489.5" y="328.5945">TCP/IP</text></g><!--link ClientBedrock to RealmsSrv--><g class="link" data-entity-1="ClientBedrock" data-entity-2="RealmsSrv" data-source-line="47" data-uid="lnk23" id="link_ClientBedrock_RealmsSrv"><path d="M545.18,160.1094 C581.88,160.1094 617.98,160.1094 655.91,160.1094" fill="none" id="ClientBedrock-to-RealmsSrv" style="stroke:#181818;stroke-width:1;"/><polygon fill="#181818" points="661.91,160.1094,652.91,156.1094,656.91,160.1094,652.91,164.1094,661.91,160.1094" style="stroke:#181818;stroke-width:1;"/><text fill="#000000" font-family="sans-serif" font-size="13" lengthAdjust="spacing" textLength="41.8945" x="561.55" y="156.6045">TCP/IP</text></g><!--link Launcher to ClientJava--><g class="link" data-entity-1="Launcher" data-entity-2="ClientJava" data-source-line="48" data-uid="lnk24" id="link_Launcher_ClientJava"><path d="M218.55,403.1094 C246.89,403.1094 283.8775,403.1094 313.78,403.1094 C328.7313,403.1094 341.9113,403.1094 351.3534,403.1094 C352.5337,403.1094 353.6556,403.1094 354.7152,403.1094 C354.9801,403.1094 355.2411,403.1094 355.4982,403.1094 C355.6267,403.1094 349.7543,403.1094 349.8808,403.1094" fill="none" id="Launcher-to-ClientJava" style="stroke:#181818;stroke-width:1;"/><polygon fill="#181818" points="355.8808,403.1094,346.8808,399.1094,350.8808,403.1094,346.8808,407.1094,355.8808,403.1094" style="stroke:#181818;stroke-width:1;"/><text fill="#000000" font-family="sans-serif" font-size="13" lengthAdjust="spacing" textLength="65.0254" x="299.76" y="417.6045">Install/Start</text></g><!--link ClientJava to Xbox--><g class="link" data-entity-1="ClientJava" data-entity-2="Xbox" data-source-line="49" data-uid="lnk25" id="link_ClientJava_Xbox"><path d="M542.3053,436.1094 C542.7182,436.1094 543.1314,436.1094 543.5449,436.1094 C544.3719,436.1094 545.1998,436.1094 546.0286,436.1094 C549.3438,436.1094 552.6719,436.1094 556,436.1094 C609.25,436.1094 662.5,436.1094 662.5,436.1094 C662.5,436.1094 662.5,361.4094 662.5,319.7994" fill="none" id="ClientJava-to-Xbox" style="stroke:#181818;stroke-width:1;"/><polygon fill="#181818" points="662.5,313.7994,658.5,322.7994,662.5,318.7994,666.5,322.7994,662.5,313.7994" style="stroke:#181818;stroke-width:1;"/><text fill="#000000" font-family="sans-serif" font-size="13" lengthAdjust="spacing" textLength="65.7681" x="535.45" y="450.6045">Anmeldung</text></g><!--link ClientBedrock to Xbox--><g class="link" data-entity-1="ClientBedrock" data-entity-2="Xbox" data-source-line="50" data-uid="lnk26" id="link_ClientBedrock_Xbox"><path d="M545.21,168.1094 C597.46,168.1094 651.5,168.1094 651.5,168.1094 C651.5,168.1094 651.5,224.1994 651.5,259.6094" fill="none" id="ClientBedrock-to-Xbox" style="stroke:#181818;stroke-width:1;"/><polygon fill="#181818" points="651.5,265.6094,655.5,256.6094,651.5,260.6094,647.5,256.6094,651.5,265.6094" style="stroke:#181818;stroke-width:1;"/><text fill="#000000" font-family="sans-serif" font-size="13" lengthAdjust="spacing" textLength="65.7681" x="581.1" y="182.6045">Anmeldung</text></g><!--link Modding to ServerJava--><g class="link" data-entity-1="Modding" data-entity-2="ServerJava" data-source-line="51" data-uid="lnk27" id="link_Modding_ServerJava"><path d="M293,460.3594 C408.43,460.3594 575.21,460.3594 678.8,460.3594" fill="none" id="Modding-to-ServerJava" style="stroke:#181818;stroke-width:1;stroke-dasharray:7,7;"/><polygon fill="#181818" points="684.8,460.3594,675.8,456.3594,679.8,460.3594,675.8,464.3594,684.8,460.3594" style="stroke:#181818;stroke-width:1;"/><text fill="#000000" font-family="sans-serif" font-size="13" lengthAdjust="spacing" textLength="124.2744" x="363.9" y="474.8545">Plugins (Deployment)</text></g><!--link ServerJava to WorldStore--><g class="link" data-entity-1="ServerJava" data-entity-2="WorldStore" data-source-line="54" data-uid="lnk28" id="link_ServerJava_WorldStore"><path d="M860.3,487.1094 C891.91,487.1094 922.8,487.1094 959.24,487.1094" fill="none" id="ServerJava-to-WorldStore" style="stroke:#181818;stroke-width:1;"/><polygon fill="#181818" points="965.24,487.1094,956.24,483.1094,960.24,487.1094,956.24,491.1094,965.24,487.1094" style="stroke:#181818;stroke-width:1;"/><text fill="#000000" font-family="sans-serif" font-size="13" lengthAdjust="spacing" textLength="113.4263" x="798.77" y="501.6045">World/Player-Daten</text></g><!--link ServerJava to PluginDB--><g class="link" data-entity-1="ServerJava" data-entity-2="PluginDB" data-source-line="55" data-uid="lnk29" id="link_ServerJava_PluginDB"><path d="M772.5,453.7494 C772.5,446.4794 772.5,440.1094 772.5,440.1094 C772.5,440.1094 894.71,440.1094 999.88,440.1094" fill="none" id="ServerJava-to-PluginDB" style="stroke:#181818;stroke-width:1;stroke-dasharray:7,7;"/><polygon fill="#181818" points="1005.88,440.1094,996.88,436.1094,1000.88,440.1094,996.88,444.1094,1005.88,440.1094" style="stroke:#181818;stroke-width:1;"/><text fill="#000000" font-family="sans-serif" font-size="13" lengthAdjust="spacing" textLength="132.9644" x="883.37" y="454.6045">Plugin-Daten (optional)</text></g><!--link RealmsSrv to RealmsStorage--><g class="link" data-entity-1="RealmsSrv" data-entity-2="RealmsStorage" data-source-line="56" data-uid="lnk30" id="link_RealmsSrv_RealmsStorage"><path d="M883.06,172.6094 C945.71,172.6094 1015.96,172.6094 1069.25,172.6094" fill="none" id="RealmsSrv-to-RealmsStorage" style="stroke:#181818;stroke-width:1;"/><polygon fill="#181818" points="1075.25,172.6094,1066.25,168.6094,1070.25,172.6094,1066.25,176.6094,1075.25,172.6094" style="stroke:#181818;stroke-width:1;"/><text fill="#000000" font-family="sans-serif" font-size="13" lengthAdjust="spacing" textLength="60.6899" x="918.15" y="187.1045">Persistenz</text></g><!--SRC=[ZLN1Rjim3BtxAuWUrWIOwtiE0zeuHRisNLPtwwwApJX2P2cGc7Jfq7yVPJc9d6x3RfRq7lduICaaII5CfSRIYWL12j_H4agrqRMhfAYjQ1eOvBXMPjUWfc6IA6GW6R2oNX9Kqc99qkZ4hQHU2oQ0udYqMoCOIqiJ7RYbgCoBr3KiX7AO9ES-7qgz4EMI479X7Q7osM7WoCgIuDlqVZXYO0etmbOlmY8m5xIfy2DyAQ95OHPqE1UM94UbblcmiV22ZlKhMIuH9WfzCSnPSNA4Ux5PlAAaD4SIajc3pu-JhCZlk5mV6yvoT2iowtGsFWFXe5lUFCEl1A07OKqnX1Lw21m4mTdHxh6IB8EpYQqOjgomuzSTBIRUicJk26451TejsfPot2tijkMydIJayZIN7U3xnQaeKrNSc7Ic1D72MExwjR4rPjTYpdq8wZfGubEyxQsvCzePdgACZ-TIrMW5KWVdDVPCEeHFEvi2vhzSkiBAcd8L6zLjzGLDP8qQNUTHMknuffgMLA1Qt1X7FKa1jc_R7l9FHHqbwblOyUia-5y94dFXEFwpiQg23y2bxvXKaB6YHhQNwtQjjX4yN3rbbteh5LmqPHUovNaqziBDrAQMEislO51ylPU4sNJ77zcCHTSM-JFG0ow_ElforF-8GZKyvMDbDbM0XwsUCLEXMMYODLbY19lexJjtmaaQMvFrEXO0-naz5dH84uo9iM6dtztRYlikYMUC7oZKZWTZAajh7Dz-k2nBi-5NgWtoOsv-Ta_CNEgA7nNKC6YaberGmoIwQcdwAUeWZE1fFCjkPwUGGmMdYAxElu7sLwuzZsAE-Euw4afb1R6Hf-cyViPSwWQLL_-7PEyWtGs5YukJYi8uk9Et_1ncQ9ta8TIlMMTt6lkLH45ymkDGSinsaOMvJdD-WNfmBs4_X0S10GO3i_R_3D-6er-HUzqT6KNoajy0]--></g></svg>