<svg xmlns="http://www.w3.org/2000/svg" xmlns:xlink="http://www.w3.org/1999/xlink" contentStyleType="text/css" data-diagram-type="DESCRIPTION" height="597px" preserveAspectRatio="none" style="width:1179px;height:597px;background:#FFFFFF;" version="1.1" viewBox="0 0 1179 597" width="1179px" zoomAndPan="magnify"><title>Minecraft - Verteilungsdiagramm (Deployment)</title><defs/><g><g class="title" data-source-line="1"><text fill="#000000" font-family="sans-serif" font-size="14" font-weight="bold" lengthAdjust="spacing" textLength="311.165" x="427.1675" y="24.5332">Minecraft - Verteilungsdiagramm (Deployment)</text></g><!--cluster DesktopHW--><g class="cluster" data-entity="DesktopHW" data-source-line="11" data-uid="ent0002" id="cluster_DesktopHW"><polygon fill="none" points="16,250.6094,26,240.6094,449,240.6094,449,521.6094,439,531.6094,16,531.6094,16,250.6094" style="stroke:#181818;stroke-width:1;"/><line style="stroke:#181818;stroke-width:1;" x1="439" x2="449" y1="250.6094" y2="240.6094"/><line style="stroke:#181818;stroke-width:1;" x1="16" x2="439" y1="250.6094" y2="250.6094"/><line style="stroke:#181818;stroke-width:1;" x1="439" x2="439" y1="250.6094" y2="531.6094"/><text fill="#000000" font-family="sans-serif" font-size="14" font-weight="bold" lengthAdjust="spacing" textLength="79.3447" x="188.8276" y="268.1426">Desktop-PC</text></g><!--cluster DesktopOS--><g class="cluster" data-entity="DesktopOS" data-source-line="12" data-uid="ent0003" id="cluster_DesktopOS"><polygon fill="none" points="40,299.6094,50,289.6094,425,289.6094,425,497.6094,415,507.6094,40,507.6094,40,299.6094" style="stroke:#181818;stroke-width:1;"/><line style="stroke:#181818;stroke-width:1;" x1="415" x2="425" y1="299.6094" y2="289.6094"/><line style="stroke:#181818;stroke-width:1;" x1="40" x2="415" y1="299.6094" y2="299.6094"/><line style="stroke:#181818;stroke-width:1;" x1="415" x2="415" y1="299.6094" y2="507.6094"/><text fill="#000000" font-family="sans-serif" font-size="14" font-weight="bold" lengthAdjust="spacing" textLength="79.3516" x="188.8242" y="317.1426">Desktop OS</text></g><!--cluster ClientJava--><g class="cluster" data-entity="ClientJava" data-source-line="13" data-uid="ent0004" id="cluster_ClientJava"><rect fill="none" height="129" rx="2.5" ry="2.5" style="stroke:#181818;stroke-width:1;" width="186" x="207" y="346.6094"/><polygon fill="none" points="376,351.6094,376,365.6094,388,365.6094,388,357.6094,382,351.6094,376,351.6094" style="stroke:#181818;stroke-width:1;"/><line style="stroke:#181818;stroke-width:1;" x1="382" x2="382" y1="351.6094" y2="357.6094"/><line style="stroke:#181818;stroke-width:1;" x1="388" x2="382" y1="357.6094" y2="357.6094"/><text fill="#000000" font-family="sans-serif" font-size="14" font-weight="bold" lengthAdjust="spacing" textLength="149.3721" x="225.314" y="363.1426">Minecraft Client (Java)</text></g><!--cluster MobileHW--><g class="cluster" data-entity="MobileHW" data-source-line="20" data-uid="ent0007" id="cluster_MobileHW"><polygon fill="none" points="164,54.6094,174,44.6094,436,44.6094,436,206.6094,426,216.6094,164,216.6094,164,54.6094" style="stroke:#181818;stroke-width:1;"/><line style="stroke:#181818;stroke-width:1;" x1="426" x2="436" y1="54.6094" y2="44.6094"/><line style="stroke:#181818;stroke-width:1;" x1="164" x2="426" y1="54.6094" y2="54.6094"/><line style="stroke:#181818;stroke-width:1;" x1="426" x2="426" y1="54.6094" y2="216.6094"/><text fill="#000000" font-family="sans-serif" font-size="14" font-weight="bold" lengthAdjust="spacing" textLength="145.4619" x="223.269" y="72.1426">Konsole / Mobilgeraet</text></g><!--cluster MobileOS--><g class="cluster" data-entity="MobileOS" data-source-line="21" data-uid="ent0008" id="cluster_MobileOS"><polygon fill="none" points="188,103.6094,198,93.6094,412,93.6094,412,182.6094,402,192.6094,188,192.6094,188,103.6094" style="stroke:#181818;stroke-width:1;"/><line style="stroke:#181818;stroke-width:1;" x1="402" x2="412" y1="103.6094" y2="93.6094"/><line style="stroke:#181818;stroke-width:1;" x1="188" x2="402" y1="103.6094" y2="103.6094"/><line style="stroke:#181818;stroke-width:1;" x1="402" x2="402" y1="103.6094" y2="192.6094"/><text fill="#000000" font-family="sans-serif" font-size="14" font-weight="bold" lengthAdjust="spacing" textLength="86.3379" x="252.8311" y="121.1426">Plattform-OS</text></g><!--cluster SelfHostHW--><g class="cluster" data-entity="SelfHostHW" data-source-line="26" data-uid="ent0010" id="cluster_SelfHostHW"><polygon fill="none" points="496,403.6094,506,393.6094,1162.5,393.6094,1162.5,570.6094,1152.5,580.6094,496,580.6094,496,403.6094" style="stroke:#181818;stroke-width:1;"/><line style="stroke:#181818;stroke-width:1;" x1="1152.5" x2="1162.5" y1="403.6094" y2="393.6094"/><line style="stroke:#181818;stroke-width:1;" x1="496" x2="1152.5" y1="403.6094" y2="403.6094"/><line style="stroke:#181818;stroke-width:1;" x1="1152.5" x2="1152.5" y1="403.6094" y2="580.6094"/><text fill="#000000" font-family="sans-serif" font-size="14" font-weight="bold" lengthAdjust="spacing" textLength="155.6406" x="747.4297" y="421.1426">Eigenes Server-System</text></g><!--cluster SelfHostOS--><g class="cluster" data-entity="SelfHostOS" data-source-line="27" data-uid="ent0011" id="cluster_SelfHostOS"><polygon fill="none" points="520,466.6094,530,456.6094,727,456.6094,727,545.6094,717,555.6094,520,555.6094,520,466.6094" style="stroke:#181818;stroke-width:1;"/><line style="stroke:#181818;stroke-width:1;" x1="717" x2="727" y1="466.6094" y2="456.6094"/><line style="stroke:#181818;stroke-width:1;" x1="520" x2="717" y1="466.6094" y2="466.6094"/><line style="stroke:#181818;stroke-width:1;" x1="717" x2="717" y1="466.6094" y2="555.6094"/><text fill="#000000" font-family="sans-serif" font-size="14" font-weight="bold" lengthAdjust="spacing" textLength="67.71" x="585.645" y="484.1426">Server OS</text></g><!--cluster RealmsHW--><g class="cluster" data-entity="RealmsHW" data-source-line="34" data-uid="ent0015" id="cluster_RealmsHW"><polygon fill="none" points="473,115.6094,483,105.6094,1076.5,105.6094,1076.5,273.6094,1066.5,283.6094,473,283.6094,473,115.6094" style="stroke:#181818;stroke-width:1;"/><line style="stroke:#181818;stroke-width:1;" x1="1066.5" x2="1076.5" y1="115.6094" y2="105.6094"/><line style="stroke:#181818;stroke-width:1;" x1="473" x2="1066.5" y1="115.6094" y2="115.6094"/><line style="stroke:#181818;stroke-width:1;" x1="1066.5" x2="1066.5" y1="115.6094" y2="283.6094"/><text fill="#000000" font-family="sans-serif" font-size="14" font-weight="bold" lengthAdjust="spacing" textLength="168.7998" x="686.3501" y="133.1426">Minecraft Realms (Cloud)</text></g><!--cluster RealmsEnv--><g class="cluster" data-entity="RealmsEnv" data-source-line="35" data-uid="ent0016" id="cluster_RealmsEnv"><polygon fill="none" points="497,164.6094,507,154.6094,1052.5,154.6094,1052.5,249.6094,1042.5,259.6094,497,259.6094,497,164.6094" style="stroke:#181818;stroke-width:1;"/><line style="stroke:#181818;stroke-width:1;" x1="1042.5" x2="1052.5" y1="164.6094" y2="154.6094"/><line style="stroke:#181818;stroke-width:1;" x1="497" x2="1042.5" y1="164.6094" y2="164.6094"/><line style="stroke:#181818;stroke-width:1;" x1="1042.5" x2="1042.5" y1="164.6094" y2="259.6094"/><text fill="#000000" font-family="sans-serif" font-size="14" font-weight="bold" lengthAdjust="spacing" textLength="114.3857" x="713.5571" y="182.1426">Managed Service</text></g><!--entity Launcher--><g class="entity" data-entity="Launcher" data-source-line="16" data-uid="ent0006" id="entity_Launcher"><rect fill="#F1F1F1" height="40.6094" rx="2.5" ry="2.5" style="stroke:#181818;stroke-width:0.5;" width="88.3789" x="56" y="447.1094"/><polygon fill="#F1F1F1" points="127.3789,452.1094,127.3789,466.1094,139.3789,466.1094,139.3789,458.1094,133.3789,452.1094,127.3789,452.1094" style="stroke:#181818;stroke-width:0.5;"/><line style="stroke:#181818;stroke-width:0.5;" x1="133.3789" x2="133.3789" y1="452.1094" y2="458.1094"/><line style="stroke:#181818;stroke-width:0.5;" x1="139.3789" x2="133.3789" y1="458.1094" y2="458.1094"/><text fill="#000000" font-family="sans-serif" font-size="14" lengthAdjust="spacing" textLength="58.3789" x="66" y="474.6426">Launcher</text></g><!--entity IntegratedSrv--><g class="entity" data-entity="IntegratedSrv" data-source-line="14" data-uid="ent0005" id="entity_IntegratedSrv"><rect fill="#F1F1F1" height="40.6094" rx="2.5" ry="2.5" style="stroke:#181818;stroke-width:0.5;" width="138.1719" x="231" y="391.1094"/><polygon fill="#F1F1F1" points="352.1719,396.1094,352.1719,410.1094,364.1719,410.1094,364.1719,402.1094,358.1719,396.1094,352.1719,396.1094" style="stroke:#181818;stroke-width:0.5;"/><line style="stroke:#181818;stroke-width:0.5;" x1="358.1719" x2="358.1719" y1="396.1094" y2="402.1094"/><line style="stroke:#181818;stroke-width:0.5;" x1="364.1719" x2="358.1719" y1="402.1094" y2="402.1094"/><text fill="#000000" font-family="sans-serif" font-size="14" lengthAdjust="spacing" textLength="108.1719" x="241" y="418.6426">Integrated Server</text></g><!--entity ClientBedrock--><g class="entity" data-entity="ClientBedrock" data-source-line="22" data-uid="ent0009" id="entity_ClientBedrock"><rect fill="#F1F1F1" height="40.6094" rx="2.5" ry="2.5" style="stroke:#181818;stroke-width:0.5;" width="191.8271" x="204" y="135.1094"/><polygon fill="#F1F1F1" points="378.8271,140.1094,378.8271,154.1094,390.8271,154.1094,390.8271,146.1094,384.8271,140.1094,378.8271,140.1094" style="stroke:#181818;stroke-width:0.5;"/><line style="stroke:#181818;stroke-width:0.5;" x1="384.8271" x2="384.8271" y1="140.1094" y2="146.1094"/><line style="stroke:#181818;stroke-width:0.5;" x1="390.8271" x2="384.8271" y1="146.1094" y2="146.1094"/><text fill="#000000" font-family="sans-serif" font-size="14" lengthAdjust="spacing" textLength="161.8271" x="214" y="162.6426">Minecraft Client (Bedrock)</text></g><!--entity WorldStore--><g class="entity" data-entity="WorldStore" data-source-line="30" data-uid="ent0013" id="entity_WorldStore"><path d="M795.5,527.1094 C795.5,517.1094 970.8169,517.1094 970.8169,517.1094 C970.8169,517.1094 1146.1338,517.1094 1146.1338,527.1094 L1146.1338,553.7188 C1146.1338,563.7188 970.8169,563.7188 970.8169,563.7188 C970.8169,563.7188 795.5,563.7188 795.5,553.7188 L795.5,527.1094" fill="#F1F1F1" style="stroke:#181818;stroke-width:0.5;"/><path d="M795.5,527.1094 C795.5,537.1094 970.8169,537.1094 970.8169,537.1094 C970.8169,537.1094 1146.1338,537.1094 1146.1338,527.1094" fill="none" style="stroke:#181818;stroke-width:0.5;"/><text fill="#000000" font-family="sans-serif" font-size="14" lengthAdjust="spacing" textLength="330.6338" x="805.5" y="555.6426">World &amp; Player Storage (Filesystem: NBT/Anvil .mca)</text></g><!--entity PluginDB--><g class="entity" data-entity="PluginDB" data-source-line="31" data-uid="ent0014" id="entity_PluginDB"><path d="M836,445.1094 C836,435.1094 970.8789,435.1094 970.8789,435.1094 C970.8789,435.1094 1105.7578,435.1094 1105.7578,445.1094 L1105.7578,471.7188 C1105.7578,481.7188 970.8789,481.7188 970.8789,481.7188 C970.8789,481.7188 836,481.7188 836,471.7188 L836,445.1094" fill="#F1F1F1" style="stroke:#181818;stroke-width:0.5;"/><path d="M836,445.1094 C836,455.1094 970.8789,455.1094 970.8789,455.1094 C970.8789,455.1094 1105.7578,455.1094 1105.7578,445.1094" fill="none" style="stroke:#181818;stroke-width:0.5;"/><text fill="#000000" font-family="sans-serif" font-size="14" lengthAdjust="spacing" textLength="249.7578" x="846" y="473.6426">Plugin-DB (SQLite/MySQL/PostgreSQL)</text></g><!--entity ServerJava--><g class="entity" data-entity="ServerJava" data-source-line="28" data-uid="ent0012" id="entity_ServerJava"><rect fill="#F1F1F1" height="40.6094" rx="2.5" ry="2.5" style="stroke:#181818;stroke-width:0.5;" width="175.4824" x="536" y="498.1094"/><polygon fill="#F1F1F1" points="694.4824,503.1094,694.4824,517.1094,706.4824,517.1094,706.4824,509.1094,700.4824,503.1094,694.4824,503.1094" style="stroke:#181818;stroke-width:0.5;"/><line style="stroke:#181818;stroke-width:0.5;" x1="700.4824" x2="700.4824" y1="503.1094" y2="509.1094"/><line style="stroke:#181818;stroke-width:0.5;" x1="706.4824" x2="700.4824" y1="509.1094" y2="509.1094"/><text fill="#000000" font-family="sans-serif" font-size="14" lengthAdjust="spacing" textLength="145.4824" x="546" y="525.6426">Minecraft Server (Java)</text></g><!--entity RealmsSrv--><g class="entity" data-entity="RealmsSrv" data-source-line="36" data-uid="ent0017" id="entity_RealmsSrv"><rect fill="#F1F1F1" height="40.6094" rx="2.5" ry="2.5" style="stroke:#181818;stroke-width:0.5;" width="221.3857" x="513" y="199.1094"/><polygon fill="#F1F1F1" points="717.3857,204.1094,717.3857,218.1094,729.3857,218.1094,729.3857,210.1094,723.3857,204.1094,717.3857,204.1094" style="stroke:#181818;stroke-width:0.5;"/><line style="stroke:#181818;stroke-width:0.5;" x1="723.3857" x2="723.3857" y1="204.1094" y2="210.1094"/><line style="stroke:#181818;stroke-width:0.5;" x1="729.3857" x2="723.3857" y1="210.1094" y2="210.1094"/><text fill="#000000" font-family="sans-serif" font-size="14" lengthAdjust="spacing" textLength="191.3857" x="523" y="226.6426">Realms-Server (Java/Bedrock)</text></g><!--entity RealmsStorage--><g class="entity" data-entity="RealmsStorage" data-source-line="37" data-uid="ent0018" id="entity_RealmsStorage"><path d="M905.5,206.1094 C905.5,196.1094 971.1514,196.1094 971.1514,196.1094 C971.1514,196.1094 1036.8027,196.1094 1036.8027,206.1094 L1036.8027,232.7188 C1036.8027,242.7188 971.1514,242.7188 971.1514,242.7188 C971.1514,242.7188 905.5,242.7188 905.5,232.7188 L905.5,206.1094" fill="#F1F1F1" style="stroke:#181818;stroke-width:0.5;"/><path d="M905.5,206.1094 C905.5,216.1094 971.1514,216.1094 971.1514,216.1094 C971.1514,216.1094 1036.8027,216.1094 1036.8027,206.1094" fill="none" style="stroke:#181818;stroke-width:0.5;"/><text fill="#000000" font-family="sans-serif" font-size="14" lengthAdjust="spacing" textLength="111.3027" x="915.5" y="234.6426">Managed Storage</text></g><!--entity Xbox--><g class="entity" data-entity="Xbox" data-source-line="41" data-uid="ent0019" id="entity_Xbox"><polygon fill="#F1F1F1" points="511.5,319.6094,521.5,309.6094,735.9131,309.6094,735.9131,347.2188,725.9131,357.2188,511.5,357.2188,511.5,319.6094" style="stroke:#181818;stroke-width:0.5;"/><line style="stroke:#181818;stroke-width:0.5;" x1="725.9131" x2="735.9131" y1="319.6094" y2="309.6094"/><line style="stroke:#181818;stroke-width:0.5;" x1="511.5" x2="725.9131" y1="319.6094" y2="319.6094"/><line style="stroke:#181818;stroke-width:0.5;" x1="725.9131" x2="725.9131" y1="319.6094" y2="357.2188"/><text fill="#000000" font-family="sans-serif" font-size="14" lengthAdjust="spacing" textLength="184.4131" x="526.5" y="344.1426">Xbox Live / Microsoft Account</text></g><!--entity Modding--><g class="entity" data-entity="Modding" data-source-line="42" data-uid="ent0020" id="entity_Modding"><rect fill="#F1F1F1" height="40.6094" rx="2.5" ry="2.5" style="stroke:#181818;stroke-width:0.5;" width="176.2754" x="212" y="548.1094"/><polygon fill="#F1F1F1" points="371.2754,553.1094,371.2754,567.1094,383.2754,567.1094,383.2754,559.1094,377.2754,553.1094,371.2754,553.1094" style="stroke:#181818;stroke-width:0.5;"/><line style="stroke:#181818;stroke-width:0.5;" x1="377.2754" x2="377.2754" y1="553.1094" y2="559.1094"/><line style="stroke:#181818;stroke-width:0.5;" x1="383.2754" x2="377.2754" y1="559.1094" y2="559.1094"/><text fill="#000000" font-family="sans-serif" font-size="14" lengthAdjust="spacing" textLength="146.2754" x="222" y="575.6426">Modding (Forge/Fabric)</text></g><!--link ClientJava to ServerJava--><g class="link" data-entity-1="ClientJava" data-entity-2="ServerJava" data-source-line="45" data-uid="lnk21" id="link_ClientJava_ServerJava"><path d="M300.5,475.7133 C300.5,479.9634 300.5,485.3875 300.5,490.7306 C300.5,501.4169 300.5,511.7794 300.5,511.7794 C300.5,511.7794 434.02,511.7794 529.67,511.7794" fill="none" id="ClientJava-to-ServerJava" style="stroke:#181818;stroke-width:1;"/><polygon fill="#181818" points="535.67,511.7794,526.67,507.7794,530.67,511.7794,526.67,515.7794,535.67,511.7794" style="stroke:#181818;stroke-width:1;"/><text fill="#000000" font-family="sans-serif" font-size="13" lengthAdjust="spacing" textLength="41.8945" x="354.06" y="526.2745">TCP/IP</text></g><!--link ClientJava to RealmsSrv--><g class="link" data-entity-1="ClientJava" data-entity-2="RealmsSrv" data-source-line="46" data-uid="lnk22" id="link_ClientJava_RealmsSrv"><path d="M390.5,345.699 C390.5,345.2492 390.5,344.7993 390.5,344.3494 C390.5,343.4495 390.5,342.5495 390.5,341.6494 C390.5,284.0444 390.5,226.4394 390.5,226.4394 C390.5,226.4394 446.68,226.4394 506.8,226.4394" fill="none" id="ClientJava-to-RealmsSrv" style="stroke:#181818;stroke-width:1;"/><polygon fill="#181818" points="512.8,226.4394,503.8,222.4394,507.8,226.4394,503.8,230.4394,512.8,226.4394" style="stroke:#181818;stroke-width:1;"/><text fill="#000000" font-family="sans-serif" font-size="13" lengthAdjust="spacing" textLength="41.8945" x="348.5" y="345.3145">TCP/IP</text></g><!--link ClientBedrock to RealmsSrv--><g class="link" data-entity-1="ClientBedrock" data-entity-2="RealmsSrv" data-source-line="47" data-uid="lnk23" id="link_ClientBedrock_RealmsSrv"><path d="M394.5,176.2494 C394.5,192.6194 394.5,212.7794 394.5,212.7794 C394.5,212.7794 448.24,212.7794 506.69,212.7794" fill="none" id="ClientBedrock-to-RealmsSrv" style="stroke:#181818;stroke-width:1;"/><polygon fill="#181818" points="512.69,212.7794,503.69,208.7794,507.69,212.7794,503.69,216.7794,512.69,212.7794" style="stroke:#181818;stroke-width:1;"/><text fill="#000000" font-family="sans-serif" font-size="13" lengthAdjust="spacing" textLength="41.8945" x="393.33" y="227.2745">TCP/IP</text></g><!--link Launcher to ClientJava--><g class="link" data-entity-1="Launcher" data-entity-2="ClientJava" data-source-line="48" data-uid="lnk24" id="link_Launcher_ClientJava"><path d="M144.39,467.6094 C158.43,467.6094 174.6144,467.6094 191.1241,467.6094 C195.2515,467.6094 199.3992,467.6094 203.5389,467.6094 C204.5738,467.6094 199.6082,467.6094 200.6417,467.6094" fill="none" id="Launcher-to-ClientJava" style="stroke:#181818;stroke-width:1;"/><polygon fill="#181818" points="206.6417,467.6094,197.6417,463.6094,201.6417,467.6094,197.6417,471.6094,206.6417,467.6094" style="stroke:#181818;stroke-width:1;"/><text fill="#000000" font-family="sans-serif" font-size="13" lengthAdjust="spacing" textLength="65.0254" x="155.88" y="482.1045">Install/Start</text></g><!--link ClientJava to Xbox--><g class="link" data-entity-1="ClientJava" data-entity-2="Xbox" data-source-line="49" data-uid="lnk25" id="link_ClientJava_Xbox"><path d="M393.378,467.6094 C393.7974,467.6094 394.2172,467.6094 394.6373,467.6094 C395.4775,467.6094 396.319,467.6094 397.1617,467.6094 C403.9033,467.6094 410.7189,467.6094 417.5087,467.6094 C471.8275,467.6094 524.5,467.6094 524.5,467.6094 C524.5,467.6094 524.5,402.4894 524.5,363.8794" fill="none" id="ClientJava-to-Xbox" style="stroke:#181818;stroke-width:1;"/><polygon fill="#181818" points="524.5,357.8794,520.5,366.8794,524.5,362.8794,528.5,366.8794,524.5,357.8794" style="stroke:#181818;stroke-width:1;"/><text fill="#000000" font-family="sans-serif" font-size="13" lengthAdjust="spacing" textLength="65.7681" x="401.44" y="482.1045">Anmeldung</text></g><!--link ClientBedrock to Xbox--><g class="link" data-entity-1="ClientBedrock" data-entity-2="Xbox" data-source-line="50" data-uid="lnk26" id="link_ClientBedrock_Xbox"><path d="M392.5,176.3794 C392.5,223.3294 392.5,333.6094 392.5,333.6094 C392.5,333.6094 446.53,333.6094 505.38,333.6094" fill="none" id="ClientBedrock-to-Xbox" style="stroke:#181818;stroke-width:1;"/><polygon fill="#181818" points="511.38,333.6094,502.38,329.6094,506.38,333.6094,502.38,337.6094,511.38,333.6094" style="stroke:#181818;stroke-width:1;"/><text fill="#000000" font-family="sans-serif" font-size="13" lengthAdjust="spacing" textLength="65.7681" x="393.5" y="328.9345">Anmeldung</text></g><!--link Modding to ServerJava--><g class="link" data-entity-1="Modding" data-entity-2="ServerJava" data-source-line="51" data-uid="lnk27" id="link_Modding_ServerJava"><path d="M378.5,548.0394 C378.5,536.9194 378.5,525.4394 378.5,525.4394 C378.5,525.4394 459.44,525.4394 529.74,525.4394" fill="none" id="Modding-to-ServerJava" style="stroke:#181818;stroke-width:1;stroke-dasharray:7,7;"/><polygon fill="#181818" points="535.74,525.4394,526.74,521.4394,530.74,525.4394,526.74,529.4394,535.74,525.4394" style="stroke:#181818;stroke-width:1;"/><text fill="#000000" font-family="sans-serif" font-size="13" lengthAdjust="spacing" textLength="42.6372" x="402.82" y="539.9345">Plugins</text></g><!--link ServerJava to WorldStore--><g class="link" data-entity-1="ServerJava" data-entity-2="WorldStore" data-source-line="54" data-uid="lnk28" id="link_ServerJava_WorldStore"><path d="M711.19,528.1094 C736.92,528.1094 760.03,528.1094 789.21,528.1094" fill="none" id="ServerJava-to-WorldStore" style="stroke:#181818;stroke-width:1;"/><polygon fill="#181818" points="795.21,528.1094,786.21,524.1094,790.21,528.1094,786.21,532.1094,795.21,528.1094" style="stroke:#181818;stroke-width:1;"/><text fill="#000000" font-family="sans-serif" font-size="13" lengthAdjust="spacing" textLength="113.4263" x="639.2" y="542.6045">World/Player-Daten</text></g><!--link ServerJava to PluginDB--><g class="link" data-entity-1="ServerJava" data-entity-2="PluginDB" data-source-line="55" data-uid="lnk29" id="link_ServerJava_PluginDB"><path d="M623.5,497.9994 C623.5,486.8594 623.5,475.3594 623.5,475.3594 C623.5,475.3594 732.08,475.3594 829.65,475.3594" fill="none" id="ServerJava-to-PluginDB" style="stroke:#181818;stroke-width:1;stroke-dasharray:7,7;"/><polygon fill="#181818" points="835.65,475.3594,826.65,471.3594,830.65,475.3594,826.65,479.3594,835.65,475.3594" style="stroke:#181818;stroke-width:1;"/><text fill="#000000" font-family="sans-serif" font-size="13" lengthAdjust="spacing" textLength="132.9644" x="719.26" y="489.8545">Plugin-Daten (optional)</text></g><!--link RealmsSrv to RealmsStorage--><g class="link" data-entity-1="RealmsSrv" data-entity-2="RealmsStorage" data-source-line="56" data-uid="lnk30" id="link_RealmsSrv_RealmsStorage"><path d="M734.41,219.6094 C790.72,219.6094 851.21,219.6094 899.34,219.6094" fill="none" id="RealmsSrv-to-RealmsStorage" style="stroke:#181818;stroke-width:1;"/><polygon fill="#181818" points="905.34,219.6094,896.34,215.6094,900.34,219.6094,896.34,223.6094,905.34,219.6094" style="stroke:#181818;stroke-width:1;"/><text fill="#000000" font-family="sans-serif" font-size="13" lengthAdjust="spacing" textLength="60.6899" x="758.87" y="234.1045">Persistenz</text></g><!--SRC=[ZLN1Rjim3BtxAuWUDWUOwtiE0veuHRicdLUtwwwApJX2P2cGb7Jfq7yVPTc9d6x3RgRq7idtHCcMMu6mu19BpLOM4lYEsY8NErcRYhDQiwQ1ECEjK8S6fHr5aK02MWMQrsiB5TTOMgvaP3PSRXaHG50-UzWYA6tNAjWmQrQf5ovhM35XC8e-kdh8vOgLQukGCMqi2bSTOcCrBoqyBUQZCG4Jk66wUc4QWRWWLOMVu6iH18LQsUC-qvPJLjioxtSQNj1G_uANQuIPG2U6E1igZZ1dkzKhSfjaQ1adTlpbOPOMsHt9TRdX8aEpiMgRvDCBO0QwyEOPVaK00mZr54AeGmU1OqDmSR9xAZYrGTNOderQbbznSKSBYRVKCfs8nGeAr7lKBUMqMkXzotaxAqZo9Cdsy3w87EwjrtUdf54q2Yair9AB6ZL3s-BR60TASy6iNIdT99rMZ_algHEij2eteTfkQTZGZDSeqNH2a-90Wz6qf0B5waOPEsZ9mthlUyW_E-eeWVb-nSMHDx5YbYsPeVpFIeiAFW19Fn2fi4gp6Y6-9jscxMqCzvF7z4hkkO3BfknIjZo7na6wNEngBfDi0d7nRSujfei3VQGvDLrhf4zFzxXiSlBbrFy3Cj7Gg4w5sbKUxfS6nYoOf4RzmF0I0zXCxj-vutUIq9fqS68Uq0_QIT2nZ3ScnFgLuUd-MAgVCEVxTk1ugPMXkmjNPQbsqe-TGqJ1iQcgSkz6VArqZUarMzBZCEg6hztg7fCbbnKz7oWXRhZa3HEZABXKIV8vE6OOm-CqJs_pSyXHvZcYC-DleFvojVj1pZ7TKcEP46bXITHvkTQECLp91eNh_W_5ta5wHoulpnJvcJ7EZnoruJISyZNjZY49BOe2dgjn6bPAqmQfd_Sae-Tb07TL- -4yrlGmYDNM_H2SyoUB0iEwkpCEsej-0m00]--></g></svg>